<?xml version="1.0" encoding="utf-8"?>
<!-- Generator: Adobe Illustrator 26.0.1, SVG Export Plug-In . SVG Version: 6.00 Build 0)  -->
<svg version="1.1" id="Layer_1" xmlns="http://www.w3.org/2000/svg" xmlns:xlink="http://www.w3.org/1999/xlink" x="0px" y="0px"
	 viewBox="0 0 1080 1080" style="enable-background:new 0 0 1080 1080;" xml:space="preserve">
<style type="text/css">
	.st0{fill:#474747;}
	.st1{fill:#282828;}
</style>
<path class="st0" d="M620.64,595.68c18.09,26.24,35.73,51.82,53.37,77.4c-0.3,0.35-0.6,0.7-0.89,1.06
	c-25.6-17.66-51.21-35.32-77.46-53.42c-18.5,100.88-36.9,201.22-55.31,301.55c-0.36-0.02-0.72-0.04-1.08-0.06
	c-18.41-100.24-36.81-200.48-55.36-301.46c-26.21,18.05-51.99,35.81-77.78,53.57c-0.25-0.31-0.5-0.62-0.76-0.92
	c17.75-25.77,35.51-51.54,53.54-77.72c-101.1-18.54-201.16-36.89-301.22-55.25c0.02-0.4,0.05-0.8,0.07-1.2
	c100.26-18.39,200.52-36.79,301.18-55.26c-18.07-26.21-35.96-52.14-53.84-78.08c0.25-0.26,0.49-0.52,0.74-0.78
	c25.92,17.87,51.85,35.74,78.07,53.82c18.46-100.56,36.87-200.82,55.28-301.08c0.4-0.04,0.8-0.07,1.2-0.11
	c18.35,100.06,36.71,200.12,55.25,301.22c26.08-17.99,51.85-35.77,77.61-53.54c0.32,0.26,0.64,0.52,0.97,0.78
	c-17.76,25.8-35.52,51.59-53.55,77.79c100.95,18.52,201.23,36.92,301.52,55.32c0.02,0.35,0.05,0.71,0.07,1.06
	C821.95,558.76,721.61,577.17,620.64,595.68z M539.09,871.15c0.42,0.05,0.83,0.09,1.25,0.14c0.26-1.94,0.44-3.89,0.79-5.81
	c2.6-14.26,5.29-28.51,7.85-42.78c2.65-14.76,5.18-29.54,7.77-44.32c2.74-15.58,5.52-31.15,8.22-46.73
	c2.5-14.46,4.85-28.95,7.38-43.41c2.47-14.13,5.15-28.22,7.6-42.35c3.12-18,5.89-36.06,9.33-54c0.56-2.9-0.12-4.21-1.79-5.88
	c-14.73-14.7-29.38-29.47-44.25-44.03c-1.65-1.61-4.5-2.81-6.8-2.81c-107.71-0.14-215.42-0.12-323.13-0.11
	c-1.46,0-2.92,0.17-4.38,0.26c-0.02,0.41-0.04,0.82-0.06,1.24c1.99,0.26,3.99,0.43,5.96,0.78c17.8,3.22,35.57,6.58,53.39,9.69
	c16.39,2.86,32.86,5.33,49.25,8.2c15.89,2.78,31.7,6.01,47.59,8.78c18.32,3.19,36.71,5.98,55.04,9.14
	c22.49,3.87,44.97,7.8,67.38,12.08c2.86,0.55,4.15-0.25,5.8-1.89c13.87-13.91,27.77-27.79,41.67-41.67c1.09-1.09,2.3-2.07,4.15-3.72
	C539.09,652.34,539.09,761.75,539.09,871.15z M866.64,538.85c0.01-0.12,0.02-0.25,0.03-0.37c-4.29-0.81-8.56-1.68-12.86-2.4
	c-14.48-2.43-28.99-4.69-43.45-7.24c-15.89-2.8-31.71-5.97-47.6-8.73c-18.32-3.18-36.72-5.96-55.04-9.16
	c-15.89-2.77-31.7-5.98-47.57-8.84c-20.69-3.73-41.41-7.32-62.13-10.94c-4.9-0.86-8.85-0.36-12.86,3.9
	c-13,13.81-26.69,26.98-40.09,40.41c-0.95,0.96-1.77,2.05-2.89,3.36C650.77,538.85,758.71,538.85,866.64,538.85z M538.72,537.44
	c0-108.7,0-216.31,0-323.91c-2.04,9.42-3.8,18.85-5.47,28.28c-2.13,12.04-4.17,24.1-6.26,36.15c-2.5,14.46-5,28.91-7.53,43.36
	c-2.13,12.2-4.31,24.4-6.45,36.6c-2.53,14.45-5.03,28.91-7.55,43.36c-2.13,12.2-4.31,24.4-6.43,36.61
	c-2.24,12.85-4.09,25.78-6.8,38.52c-1.73,8.16-1.55,14.21,5.69,20.6C511.99,509.42,524.7,523.37,538.72,537.44z M423.34,424.46
	c0.68,0.93,1.75,2.33,2.75,3.76c12.33,17.65,24.64,35.3,37.01,52.92c0.56,0.8,1.79,1.81,2.53,1.68c4.84-0.83,9.63-1.95,13.34-2.75
	C460.31,461.42,441.63,442.74,423.34,424.46z M423.62,656.02c1.2-0.51,2.32-0.78,3.21-1.39c17.79-12.39,35.58-24.8,53.29-37.3
	c1.21-0.86,2.75-2.65,2.6-3.81c-0.63-4.72-1.85-9.37-2.8-13.77C461.17,618.49,442.5,637.15,423.62,656.02z M650.35,427.33
	c-0.48,0.02-0.88-0.08-1.09,0.07c-16.68,11.65-33.38,23.27-49.93,35.1c-1.29,0.92-2.29,3.34-2.15,4.96
	c0.32,3.74,1.42,7.42,2.15,10.89C616.35,461.32,633.35,444.33,650.35,427.33z M602,599.19c16.71,16.72,33.32,33.33,49.74,49.75
	c-3.17-4.58-6.48-9.49-9.9-14.32c-8.38-11.85-16.74-23.71-25.31-35.41c-0.89-1.22-3.18-2.14-4.72-2
	C608.34,597.51,604.93,598.56,602,599.19z"/>
<path class="st0" d="M576.06,781.79c2.39-14.04,4.55-27.53,7.17-40.93c0.31-1.58,2.96-3.39,4.84-3.86
	c23.14-5.86,44.7-15.36,64.51-28.53c13.88-9.23,26.65-20.03,37.71-32.56c19.24-21.79,33.92-46.3,42.61-74.19
	c1.4-4.5,2.93-8.99,3.83-13.59c0.86-4.42,2.17-6.82,7.5-7.5c12.09-1.55,24.03-4.29,36.04-6.53c0.28-0.05,0.61,0.16,1.62,0.44
	c-7.55,53.48-30.53,99.59-68.33,137.72C675.85,750.32,629.92,773.59,576.06,781.79z"/>
<path class="st0" d="M503.71,781.5c-116.54-15.96-195.76-114.76-205.27-206.45c6.32,1.04,12.5,1.98,18.65,3.08
	c6.89,1.23,13.74,2.72,20.65,3.86c2.76,0.45,3.87,1.24,4.61,4.38c4.85,20.59,12.85,39.92,23.73,58.12
	c10.67,17.86,23.93,33.61,39.55,47.09c10.7,9.23,22.52,17.38,34.63,24.7c16.21,9.81,33.81,16.75,52.48,20.65
	c4.45,0.93,3.68,4.81,4.24,7.75C499.3,756.82,501.44,769,503.71,781.5z"/>
<path class="st0" d="M576.01,297.88c53.03,8.3,98.38,30.86,136.18,68.31c37.86,37.51,60.65,82.88,69.42,136.2
	c-6.98-1.14-13.71-2.16-20.4-3.37c-6.73-1.21-13.39-2.92-20.16-3.78c-3.02-0.39-3.67-1.69-4.28-4.18c-6.6-26.6-18-51.06-34.54-72.83
	c-20.87-27.48-46.89-49-78.62-62.92c-11.72-5.14-24.07-8.91-36.31-12.73c-2.75-0.86-3.82-2.19-4.21-4.31
	C580.7,325.15,578.47,312,576.01,297.88z"/>
<path class="st0" d="M503.6,298.49c-2.64,14.52-5.23,28.79-7.6,41.84c-15.61,5.89-31.15,10.49-45.49,17.53
	c-12.93,6.35-24.9,14.89-36.63,23.37c-7.84,5.67-15.01,12.48-21.65,19.56c-16.7,17.79-30.25,37.78-39.07,60.66
	c-3.74,9.69-6.95,19.6-9.91,29.56c-1.16,3.9-4.3,3.25-6.58,3.72c-11.33,2.36-22.75,4.3-34.14,6.32c-1.26,0.22-2.6,0.03-3.94,0.03
	C314.59,389.76,410.17,308.82,503.6,298.49z"/>
<path class="st1" d="M539.09,871.15c0-109.4,0-218.81,0-329.21c-1.84,1.65-3.05,2.62-4.15,3.72c-13.9,13.88-27.8,27.77-41.67,41.67
	c-1.64,1.65-2.94,2.44-5.8,1.89c-22.41-4.28-44.89-8.21-67.38-12.08c-18.33-3.15-36.72-5.95-55.04-9.14
	c-15.89-2.77-31.7-5.99-47.59-8.78c-16.39-2.87-32.85-5.34-49.25-8.2c-17.82-3.11-35.59-6.47-53.39-9.69
	c-1.97-0.36-3.98-0.53-5.96-0.78c0.02-0.41,0.04-0.82,0.06-1.24c1.46-0.09,2.92-0.26,4.38-0.26c107.71-0.01,215.42-0.03,323.13,0.11
	c2.3,0,5.15,1.2,6.8,2.81c14.87,14.55,29.52,29.33,44.25,44.03c1.67,1.66,2.34,2.97,1.79,5.88c-3.43,17.94-6.21,36-9.33,54
	c-2.45,14.13-5.13,28.22-7.6,42.35c-2.53,14.46-4.87,28.95-7.38,43.41c-2.69,15.58-5.48,31.15-8.22,46.73
	c-2.59,14.77-5.12,29.55-7.77,44.32c-2.56,14.27-5.25,28.52-7.85,42.78c-0.35,1.92-0.53,3.87-0.79,5.81
	C539.92,871.24,539.51,871.19,539.09,871.15z"/>
<path class="st1" d="M866.64,538.85c-107.93,0-215.87,0-324.47,0c1.12-1.31,1.94-2.4,2.89-3.36c13.41-13.43,27.09-26.6,40.09-40.41
	c4.01-4.26,7.96-4.75,12.86-3.9c20.71,3.62,41.43,7.21,62.13,10.94c15.87,2.86,31.69,6.06,47.57,8.84
	c18.32,3.2,36.72,5.98,55.04,9.16c15.89,2.76,31.71,5.93,47.6,8.73c14.46,2.54,28.97,4.81,43.45,7.24c4.3,0.72,8.57,1.6,12.86,2.4
	C866.66,538.6,866.65,538.73,866.64,538.85z"/>
<path class="st1" d="M538.72,537.44c-14.02-14.07-26.73-28.02-40.81-40.44c-7.24-6.38-7.42-12.44-5.69-20.6
	c2.71-12.75,4.56-25.68,6.8-38.52c2.13-12.2,4.3-24.4,6.43-36.61c2.53-14.45,5.02-28.91,7.55-43.36c2.14-12.2,4.32-24.4,6.45-36.6
	c2.53-14.45,5.03-28.91,7.53-43.36c2.09-12.05,4.13-24.11,6.26-36.15c1.67-9.44,3.43-18.86,5.47-28.28
	C538.72,321.13,538.72,428.74,538.72,537.44z"/>
<path class="st1" d="M423.34,424.46c18.29,18.28,36.97,36.96,55.63,55.62c-3.71,0.79-8.5,1.91-13.34,2.75
	c-0.74,0.13-1.97-0.89-2.53-1.68c-12.37-17.61-24.68-35.27-37.01-52.92C425.09,426.79,424.02,425.39,423.34,424.46z"/>
<path class="st1" d="M423.62,656.02c18.88-18.87,37.55-37.54,56.29-56.27c0.95,4.4,2.17,9.05,2.8,13.77
	c0.15,1.16-1.38,2.95-2.6,3.81c-17.71,12.51-35.5,24.91-53.29,37.3C425.95,655.25,424.82,655.51,423.62,656.02z"/>
<path class="st1" d="M650.35,427.33c-17,17-34,34-51.03,51.02c-0.73-3.47-1.83-7.14-2.15-10.89c-0.14-1.62,0.86-4.04,2.15-4.96
	c16.55-11.82,33.25-23.44,49.93-35.1C649.48,427.25,649.87,427.35,650.35,427.33z"/>
<path class="st1" d="M602,599.19c2.93-0.63,6.33-1.68,9.81-1.98c1.54-0.13,3.83,0.79,4.72,2c8.57,11.71,16.93,23.57,25.31,35.41
	c3.42,4.83,6.74,9.74,9.9,14.32C635.32,632.52,618.71,615.91,602,599.19z"/>
</svg>
