<svg xmlns="http://www.w3.org/2000/svg" width="77" height="77" viewBox="0 0 77 77">
  <g id="compess_rotation" data-name="compess rotation" transform="translate(-176 -659)">
    <g id="Ellipse_1" data-name="Ellipse 1" transform="translate(176 659)" fill="#ec7a7a" stroke="#707070" stroke-width="1">
      <circle cx="38.5" cy="38.5" r="38.5" stroke="none"/>
      <circle cx="38.5" cy="38.5" r="38" fill="none"/>
    </g>
    <g id="compess" transform="translate(182.537 665.539)">
      <path id="Path_1" data-name="Path 1" d="M196.4,194.356l4.462,6.471c-.025.029-.05.059-.074.089l-6.477-4.466q-2.32,12.652-4.625,25.213l-.09-.005c-1.539-8.381-3.078-16.762-4.629-25.205l-6.5,4.479c-.021-.026-.042-.052-.064-.077l4.477-6.5-25.185-4.619c0-.033,0-.067.006-.1l25.182-4.62-4.5-6.528.062-.065,6.527,4.5q2.315-12.612,4.622-25.173l.1-.009c1.534,8.366,3.069,16.732,4.619,25.185l6.489-4.477.081.065-4.477,6.5,25.21,4.625c0,.029,0,.059.006.089Zm-6.818,23.032.1.012c.022-.162.037-.325.066-.486.217-1.192.442-2.384.656-3.577.222-1.234.433-2.47.65-3.706.229-1.3.462-2.6.687-3.907.209-1.209.406-2.421.617-3.63.207-1.181.431-2.36.635-3.541.261-1.505.492-3.015.78-4.515a.46.46,0,0,0-.15-.492c-1.232-1.229-2.456-2.464-3.7-3.681a.9.9,0,0,0-.569-.235q-13.509-.018-27.017-.009c-.122,0-.244.014-.366.022l-.005.1c.166.022.334.036.5.065,1.488.269,2.974.55,4.464.81,1.37.239,2.747.446,4.118.686,1.329.232,2.65.5,3.979.734,1.532.267,3.069.5,4.6.764,1.88.324,3.76.652,5.634,1.01a.459.459,0,0,0,.485-.158q1.74-1.745,3.484-3.484c.091-.091.192-.173.347-.311C189.579,199.094,189.579,208.242,189.579,217.389ZM216.966,189.6l0-.031c-.359-.068-.716-.14-1.075-.2-1.211-.2-2.424-.392-3.633-.605-1.329-.234-2.651-.5-3.98-.73-1.532-.266-3.07-.5-4.6-.766-1.329-.232-2.65-.5-3.977-.739-1.73-.312-3.462-.612-5.195-.915a1.056,1.056,0,0,0-1.075.326c-1.087,1.155-2.232,2.256-3.352,3.379-.079.08-.148.171-.242.281Zm-27.418-.118V162.4c-.171.788-.318,1.576-.457,2.365-.178,1.007-.349,2.015-.523,3.023q-.314,1.813-.63,3.625c-.178,1.02-.36,2.04-.539,3.06q-.317,1.812-.631,3.625c-.178,1.02-.36,2.04-.538,3.061-.187,1.074-.342,2.155-.569,3.221a1.538,1.538,0,0,0,.476,1.722C187.313,187.144,188.376,188.311,189.548,189.487Zm-9.647-9.446c.057.078.146.195.23.314q1.546,2.214,3.094,4.425c.047.067.15.151.212.14.4-.069.805-.163,1.115-.23Zm.023,19.361a1.587,1.587,0,0,0,.268-.116q2.231-1.554,4.456-3.119c.1-.072.23-.222.217-.319-.053-.395-.155-.783-.234-1.151Zm18.957-19.121c-.04,0-.074-.007-.091.006-1.395.974-2.791,1.946-4.175,2.935a.537.537,0,0,0-.18.415,7.561,7.561,0,0,0,.18.911Zm-4.043,14.369L199,198.81c-.265-.383-.542-.793-.828-1.2-.7-.991-1.4-1.982-2.116-2.961a.51.51,0,0,0-.395-.167A6.481,6.481,0,0,0,194.839,194.65Z" transform="translate(-157.69 -157.74)" fill="#474747"/>
      <path id="Path_2" data-name="Path 2" d="M576.06,591.458c.2-1.174.38-2.3.6-3.422.026-.132.247-.283.4-.323a17.39,17.39,0,0,0,5.394-2.385,16.007,16.007,0,0,0,3.153-2.722,16.932,16.932,0,0,0,3.563-6.2,10.946,10.946,0,0,0,.32-1.136c.072-.37.181-.57.627-.627,1.011-.13,2.009-.359,3.013-.546.023,0,.051.013.135.037a20.392,20.392,0,0,1-17.21,17.328Z" transform="translate(-541.08 -539.281)" fill="#474747"/>
      <path id="Path_3" data-name="Path 3" d="M315.6,592.311A20.251,20.251,0,0,1,298.44,575.05c.528.087,1.045.166,1.559.258.576.1,1.149.227,1.727.323.231.038.324.1.385.366a17.037,17.037,0,0,0,1.984,4.859,16.056,16.056,0,0,0,3.307,3.937,21.283,21.283,0,0,0,2.9,2.065,13.949,13.949,0,0,0,4.388,1.727c.372.078.308.4.354.648C315.234,590.248,315.413,591.266,315.6,592.311Z" transform="translate(-286.672 -540.159)" fill="#474747"/>
      <path id="Path_4" data-name="Path 4" d="M576.01,297.88a20.452,20.452,0,0,1,17.19,17.1c-.584-.1-1.146-.181-1.706-.282s-1.12-.244-1.686-.316c-.252-.033-.307-.141-.358-.35a16.88,16.88,0,0,0-9.461-11.35,29.132,29.132,0,0,0-3.036-1.064.431.431,0,0,1-.352-.36C576.4,300.16,576.216,299.061,576.01,297.88Z" transform="translate(-541.034 -286.163)" fill="#474747"/>
      <path id="Path_5" data-name="Path 5" d="M315.731,298.49c-.221,1.214-.437,2.407-.635,3.5-1.305.492-2.6.877-3.8,1.466a21.6,21.6,0,0,0-3.063,1.954,12.854,12.854,0,0,0-1.81,1.635,15.614,15.614,0,0,0-3.267,5.072c-.313.81-.581,1.639-.829,2.472-.1.326-.36.272-.55.311-.947.2-1.9.359-2.854.528a1.96,1.96,0,0,1-.329,0A20.291,20.291,0,0,1,315.731,298.49Z" transform="translate(-286.809 -286.722)" fill="#474747"/>
      <path id="Path_6" data-name="Path 6" d="M236.471,566.81V539.285c-.154.138-.255.219-.347.311q-1.743,1.741-3.484,3.484a.457.457,0,0,1-.485.158c-1.874-.358-3.753-.686-5.634-1.01-1.533-.263-3.07-.5-4.6-.764-1.329-.232-2.65-.5-3.979-.734-1.37-.24-2.747-.446-4.118-.686-1.49-.26-2.976-.541-4.464-.81-.165-.03-.333-.044-.5-.065,0-.034,0-.068.005-.1.122-.008.244-.022.366-.022q13.509,0,27.017.009a.9.9,0,0,1,.569.235c1.243,1.217,2.468,2.452,3.7,3.681a.461.461,0,0,1,.15.492c-.287,1.5-.519,3.01-.78,4.515-.2,1.181-.429,2.359-.635,3.541-.212,1.209-.407,2.421-.617,3.63-.225,1.3-.458,2.6-.687,3.907-.217,1.235-.428,2.471-.65,3.706-.214,1.193-.439,2.385-.656,3.577-.029.161-.044.324-.066.486Z" transform="translate(-204.582 -507.162)" fill="#282828"/>
      <path id="Path_7" data-name="Path 7" d="M569.3,494.846H542.17c.094-.11.162-.2.242-.281,1.121-1.123,2.265-2.224,3.352-3.379a1.057,1.057,0,0,1,1.075-.326c1.732.3,3.464.6,5.195.915,1.327.239,2.65.507,3.977.739,1.532.268,3.07.5,4.6.766,1.328.231,2.651.5,3.98.73,1.209.212,2.422.4,3.633.605.36.06.717.134,1.075.2C569.3,494.825,569.3,494.836,569.3,494.846Z" transform="translate(-510.023 -462.981)" fill="#282828"/>
      <path id="Path_8" data-name="Path 8" d="M495.278,240.6c-1.172-1.176-2.235-2.343-3.412-3.381a1.538,1.538,0,0,1-.476-1.722c.227-1.066.381-2.147.569-3.221.178-1.02.359-2.04.538-3.061q.317-1.812.631-3.625c.179-1.02.361-2.04.539-3.06q.317-1.812.63-3.625c.175-1.007.345-2.016.523-3.022.14-.789.287-1.577.457-2.365C495.278,222.517,495.278,231.515,495.278,240.6Z" transform="translate(-463.42 -208.856)" fill="#282828"/>
      <path id="Path_9" data-name="Path 9" d="M423.34,424.46l4.651,4.65c-.31.066-.711.16-1.115.23-.062.011-.165-.074-.211-.14q-1.551-2.209-3.094-4.425C423.486,424.655,423.4,424.538,423.34,424.46Z" transform="translate(-401.129 -402.159)" fill="#282828"/>
      <path id="Path_10" data-name="Path 10" d="M423.62,604.455l4.706-4.7c.079.368.181.757.234,1.151.013.1-.115.247-.217.319q-2.221,1.569-4.456,3.119A1.454,1.454,0,0,1,423.62,604.455Z" transform="translate(-401.385 -562.793)" fill="#282828"/>
      <path id="Path_11" data-name="Path 11" d="M601.6,427.317l-4.267,4.266a7.524,7.524,0,0,1-.18-.91.537.537,0,0,1,.18-.415c1.384-.988,2.78-1.96,4.175-2.935C601.532,427.31,601.564,427.319,601.6,427.317Z" transform="translate(-560.413 -404.776)" fill="#282828"/>
      <path id="Path_12" data-name="Path 12" d="M602,597.364a6.468,6.468,0,0,1,.82-.166.516.516,0,0,1,.395.167c.717.979,1.416,1.971,2.116,2.961.286.4.564.814.828,1.2Z" transform="translate(-564.851 -560.454)" fill="#282828"/>
    </g>
  </g>
</svg>
