<svg xmlns="http://www.w3.org/2000/svg" width="241.097" height="292.073" viewBox="0 0 241.097 292.073">
  <g id="Group_10" data-name="Group 10" transform="translate(-93.451 -316.963)">
    <g id="Location_travel" data-name="Location travel" transform="translate(-54.167 243.272)">
      <path id="Path_13" data-name="Path 13" d="M829.586,98.437q-.574,1.586-1.145,3.169c-.1.1-.245.173-.3.292a15.8,15.8,0,0,1-4.315,5.833c-4.478,3.6-8.934,7.214-13.443,10.77-4.026,3.176-8.109,6.279-12.166,9.414-.116-.044-.235-.085-.351-.129a1.08,1.08,0,0,0,.041-.355c-.91-3.985-1.864-7.961-2.736-11.956-1.161-5.3-2.3-10.613-3.376-15.932a41.384,41.384,0,0,1-.825-5.877,31.477,31.477,0,0,1,.364-4.49q.894-2.466,1.785-4.93c.282-.411.587-.813.844-1.24a18.759,18.759,0,0,1,10.9-8.416,17.491,17.491,0,0,1,9.288-.48c.662.157,1.343.238,2.018.351l2.288.828c.069.091.116.226.207.264a17.752,17.752,0,0,1,6.913,5.153,19.161,19.161,0,0,1,4.471,14.8C829.938,96.485,829.74,97.458,829.586,98.437Zm-16.1-13a8.484,8.484,0,0,0-10.817,4.823,8.585,8.585,0,0,0,4.6,10.87,8.493,8.493,0,0,0,11.287-4.867A8.335,8.335,0,0,0,813.485,85.436Z" transform="translate(-441.461)" fill="#474747"/>
      <path id="Path_14" data-name="Path 14" d="M197.032,781.875q.951,2.057,1.9,4.117a1.616,1.616,0,0,0-.009.562,21.253,21.253,0,0,1,1.4,9.662c-.875,7.676-1.71,15.357-2.652,23.023-.841,6.847-1.8,13.678-2.714,20.516-.154.069-.3.141-.458.21a1.456,1.456,0,0,0-.3-.38c-4.644-2.947-9.317-5.846-13.936-8.833q-9.2-5.954-18.313-12.031a55.43,55.43,0,0,1-6.354-4.839,42.561,42.561,0,0,1-3.907-4.638q-1.483-3.2-2.962-6.4c-.119-.662-.21-1.33-.367-1.983a25.257,25.257,0,0,1,2.451-18.366,23.537,23.537,0,0,1,8.422-9.254c.781-.48,1.509-1.045,2.262-1.572l2.972-1.375c.151.022.323.107.446.057a23.9,23.9,0,0,1,11.485-1.622,25.766,25.766,0,0,1,18.288,9.913C195.52,779.675,196.254,780.792,197.032,781.875Zm-27.7,2.821c-5.727,2.366-8.162,9.524-5.771,14.852a11.556,11.556,0,0,0,14.689,6.037,11.427,11.427,0,0,0,6.182-15.338A11.212,11.212,0,0,0,169.334,784.7Z" transform="translate(0 -476.849)" fill="#474747"/>
      <g id="Group_9" data-name="Group 9" transform="translate(196.907 135.531)">
        <g id="Group_8" data-name="Group 8" transform="translate(0 0)">
          <g id="Group_7" data-name="Group 7">
            <g id="Group_6" data-name="Group 6">
              <g id="Group_5" data-name="Group 5">
                <path id="Path_15" data-name="Path 15" d="M305.233,1003.388c-.744.226-.439.267-.543.323C305.923,1003.29,305.189,1003.366,305.233,1003.388Z" transform="translate(-304.69 -773.477)" fill="#474747"/>
                <path id="Path_16" data-name="Path 16" d="M344.215,988.058l-.195.125,1.726-.753Z" transform="translate(-331.678 -762.541)" fill="#474747"/>
                <path id="Path_17" data-name="Path 17" d="M364.5,976.35c-1.133.191-4.035,1.553-6.059,2.206l-.345.072-.841.5C359.669,978.22,362.773,976.937,364.5,976.35Z" transform="translate(-340.757 -754.938)" fill="#474747"/>
                <path id="Path_18" data-name="Path 18" d="M396.773,970.24c-.4.06,1.255-.568-1.393.512.138-.041.179-.053.257-.075C395.879,970.586,396.212,970.457,396.773,970.24Z" transform="translate(-366.922 -750.657)" fill="#474747"/>
                <path id="Path_19" data-name="Path 19" d="M395.374,971.8c-1.17.461.794-.229,0,0Z" transform="translate(-366.655 -751.786)" fill="#474747"/>
                <path id="Path_20" data-name="Path 20" d="M410.069,964.528l-1.509.684c.342-.078,1.713-.615,1.221-.376C411.34,964.167,411,964.249,410.069,964.528Z" transform="translate(-375.966 -746.683)" fill="#474747"/>
                <path id="Path_21" data-name="Path 21" d="M416.1,962.63l-.784.351A3.1,3.1,0,0,0,416.1,962.63Z" transform="translate(-380.605 -745.523)" fill="#474747"/>
                <path id="Path_22" data-name="Path 22" d="M410.02,964.491l1.663-.741a1.366,1.366,0,0,0-.766.333C411.03,963.967,410.72,964.161,410.02,964.491Z" transform="translate(-376.968 -746.291)" fill="#474747"/>
                <path id="Path_23" data-name="Path 23" d="M401.531,967.22c-.882.3-2.011.706-.493.025C398.1,968.428,398.593,968.409,401.531,967.22Z" transform="translate(-369.451 -748.673)" fill="#474747"/>
                <path id="Path_24" data-name="Path 24" d="M377.162,974.98l-1.183.377-.979.449C375.49,975.583,377.259,975.018,377.162,974.98Z" transform="translate(-352.937 -753.997)" fill="#474747"/>
                <path id="Path_25" data-name="Path 25" d="M439.977,952.791c.075-.085-.562.1-.7.091l-1.108.524A15.7,15.7,0,0,1,439.977,952.791Z" transform="translate(-396.284 -738.756)" fill="#474747"/>
                <path id="Path_26" data-name="Path 26" d="M441.647,951.408l1.654-.787C441.795,951.251,441.531,951.4,441.647,951.408Z" transform="translate(-398.654 -737.282)" fill="#474747"/>
                <path id="Path_27" data-name="Path 27" d="M412.434,961.07l-2.724,1.277,3.26-1.5Z" transform="translate(-376.755 -744.302)" fill="#474747"/>
                <path id="Path_28" data-name="Path 28" d="M462.437,943.257l-.907.515,1.629-.891Z" transform="translate(-412.314 -731.97)" fill="#474747"/>
                <path id="Path_29" data-name="Path 29" d="M477.574,934.938c-.665.4,1.026-.289.307.094,1.145-.53,2.093-1.048,2.943-1.512C479.905,933.981,478.9,934.427,477.574,934.938Z" transform="translate(-423.215 -725.548)" fill="#474747"/>
                <path id="Path_30" data-name="Path 30" d="M489.717,931.06c-.458.235-.926.493-1.437.772C488.77,931.584,489.246,931.333,489.717,931.06Z" transform="translate(-430.67 -723.859)" fill="#474747"/>
                <path id="Path_31" data-name="Path 31" d="M456.14,945.816a7.164,7.164,0,0,0,1.378-.446l-.715.163C456.6,945.618,456.372,945.718,456.14,945.816Z" transform="translate(-408.615 -733.679)" fill="#474747"/>
                <path id="Path_32" data-name="Path 32" d="M458.17,944.558l.025-.006,1.431-.612Z" transform="translate(-410.008 -732.698)" fill="#474747"/>
                <path id="Path_33" data-name="Path 33" d="M455.61,946.862c.063-.025.107-.047.166-.072A.359.359,0,0,0,455.61,946.862Z" transform="translate(-408.252 -734.654)" fill="#474747"/>
                <path id="Path_34" data-name="Path 34" d="M432.69,954.042c.967-.48,3-1.415.957-.687C432.969,953.734,434.14,953.317,432.69,954.042Z" transform="translate(-392.524 -738.974)" fill="#474747"/>
                <path id="Path_35" data-name="Path 35" d="M448.656,947.65l-1.8.734c.05.019.392-.072-.085.169Z" transform="translate(-402.186 -735.244)" fill="#474747"/>
                <path id="Path_36" data-name="Path 36" d="M453.637,946.33l-.857.414.668-.273Z" transform="translate(-406.31 -734.338)" fill="#474747"/>
                <path id="Path_37" data-name="Path 37" d="M481.431,932.417c.741-.4,1.575-.785,2.513-1.227-1.023.439-2.074.9-3.069,1.352C480.753,932.646,480.348,932.913,481.431,932.417Z" transform="translate(-425.468 -723.949)" fill="#474747"/>
                <path id="Path_38" data-name="Path 38" d="M470.948,940.192c.053-.025.119-.06.166-.082C471,940.148,470.92,940.179,470.948,940.192Z" transform="translate(-418.773 -730.07)" fill="#474747"/>
                <path id="Path_39" data-name="Path 39" d="M520.082,917.27c-.053.019-.1.031-.157.05-.009.013-.013.022-.025.038Z" transform="translate(-452.368 -714.397)" fill="#474747"/>
                <path id="Path_40" data-name="Path 40" d="M477.115,935.486a14.216,14.216,0,0,0-1.635.784c.565-.267,1.167-.546,1.814-.838C477.35,935.386,477.356,935.37,477.115,935.486Z" transform="translate(-421.887 -726.836)" fill="#474747"/>
                <path id="Path_41" data-name="Path 41" d="M498.073,927.05c-.408.16-.863.349-1.343.546A10.65,10.65,0,0,0,498.073,927.05Z" transform="translate(-436.468 -721.108)" fill="#474747"/>
                <path id="Path_42" data-name="Path 42" d="M472.113,939.816c-.038.019-.072.034-.113.056C472.264,939.788,472.226,939.791,472.113,939.816Z" transform="translate(-419.499 -729.857)" fill="#474747"/>
                <path id="Path_43" data-name="Path 43" d="M471.763,938.7c.386-.191.681-.361.979-.524-.461.217-.885.421-1.252.606C471.59,938.751,471.691,938.723,471.763,938.7Z" transform="translate(-419.149 -728.745)" fill="#474747"/>
                <path id="Path_44" data-name="Path 44" d="M518.224,908.493a17.472,17.472,0,0,1-3.756,1.961c-1.638.894-.364.734,1.2.226.028-.075.006-.116,1.7-1.032-.631.242-3.9,1.726-2.492.919A20.61,20.61,0,0,1,517.9,909.2c-1.007.329,2.8-1.644,2.2-1.6l-1.958,1.07C518.1,908.659,518.792,908.245,518.224,908.493Z" transform="translate(-448.116 -707.76)" fill="#474747"/>
                <path id="Path_45" data-name="Path 45" d="M507.906,919.091l-.706.354c.822-.37,1.428-.6,2.539-1.029a7.337,7.337,0,0,0,1.447-.866l-3.515,1.673Z" transform="translate(-443.653 -714.589)" fill="#474747"/>
                <path id="Path_46" data-name="Path 46" d="M492.9,925.106c.5-.383,2.2-1.24,1.083-.879-2.1.992-1.425.788-2.658,1.425,3.383-1.6-.945.521,1.544-.546-.659.33-1.255.615-1.82.882l1.786-.756c-.031.013-.057.019-.082.028l-.016.006,0,0c-.154.053-.207.066-.038,0l.069-.034a.437.437,0,0,1,.129-.119c.995-.433.169-.041-.132.119-.009.012-.031.028-.031.038l.013,0,3.364-1.66C495.39,923.917,494.492,924.347,492.9,925.106Z" transform="translate(-432.571 -718.74)" fill="#474747"/>
                <path id="Path_47" data-name="Path 47" d="M441.26,950.372c.113-.035.11-.022.122-.019C441.6,950.247,441.677,950.2,441.26,950.372Z" transform="translate(-398.405 -737.034)" fill="#474747"/>
                <path id="Path_48" data-name="Path 48" d="M441.021,948.02a9.5,9.5,0,0,1-1.252.593c-.725.26-.022-.06-.075-.088-.477.239-1.685.813-.116.226l.238-.119a28.57,28.57,0,0,1,3.022-1.026A10.724,10.724,0,0,0,441.021,948.02Z" transform="translate(-396.716 -735.202)" fill="#474747"/>
                <path id="Path_49" data-name="Path 49" d="M471.77,935.744l2.821-1.334-1.5.543.1.031C471.563,935.684,471.949,935.606,471.77,935.744Z" transform="translate(-419.341 -726.158)" fill="#474747"/>
                <path id="Path_50" data-name="Path 50" d="M520.921,915.505l-.311.311,1.531-.976Z" transform="translate(-452.855 -712.729)" fill="#474747"/>
                <path id="Path_51" data-name="Path 51" d="M533,910.36l-.078.179.923-.549Z" transform="translate(-461.302 -709.401)" fill="#474747"/>
                <path id="Path_52" data-name="Path 52" d="M382.633,600.046l-.922-.066C382.146,600.021,382.429,600.033,382.633,600.046Z" transform="translate(-357.541 -496.672)" fill="#474747"/>
                <path id="Path_53" data-name="Path 53" d="M405.557,601.6l.166-.053C405.412,601.569,405.287,601.588,405.557,601.6Z" transform="translate(-373.803 -497.749)" fill="#474747"/>
                <path id="Path_54" data-name="Path 54" d="M750.425,690.406a8.378,8.378,0,0,0-.113-2.749l-.072.436c.075.474.11.9.147,1.277S750.422,690.092,750.425,690.406Z" transform="translate(-610.428 -556.826)" fill="#474747"/>
                <path id="Path_55" data-name="Path 55" d="M579.18,598.074c.125.019.257.034.389.053.326-.035.631-.069.907-.1Z" transform="translate(-493.046 -495.333)" fill="#474747"/>
                <path id="Path_56" data-name="Path 56" d="M572.294,599.589l-1.754-.129C570.935,599.495,571.5,599.542,572.294,599.589Z" transform="translate(-487.117 -496.315)" fill="#474747"/>
                <path id="Path_57" data-name="Path 57" d="M326.191,522.094l.289-1.064C325.827,522.615,326.182,521.943,326.191,522.094Z" transform="translate(-319.373 -442.496)" fill="#474747"/>
                <path id="Path_58" data-name="Path 58" d="M647.24,840.172c.97-.631,1.729-1.155,2.382-1.632A17.587,17.587,0,0,0,647.24,840.172Z" transform="translate(-539.749 -660.372)" fill="#474747"/>
                <path id="Path_59" data-name="Path 59" d="M391.64,596.327c-.555-.019-.8-.013-.781.019C391.433,596.368,391.756,596.368,391.64,596.327Z" transform="translate(-363.819 -494.158)" fill="#474747"/>
                <path id="Path_60" data-name="Path 60" d="M657.5,832.11c-.166.116-.333.232-.5.348-.662.527-1.324,1.064-2.162,1.666A20.632,20.632,0,0,0,657.5,832.11Z" transform="translate(-544.964 -655.96)" fill="#474747"/>
                <path id="Path_61" data-name="Path 61" d="M701.46,369.128c.091-.025.2-.053.286-.075C701.768,369.028,701.642,369.065,701.46,369.128Z" transform="translate(-576.955 -338.203)" fill="#474747"/>
                <path id="Path_62" data-name="Path 62" d="M801.08,306.1c-.091.169-.21.4-.342.64s-.3.5-.458.756c.082-.119.185-.282.323-.505S800.886,306.47,801.08,306.1Z" transform="translate(-644.765 -295.01)" fill="#474747"/>
                <path id="Path_63" data-name="Path 63" d="M578.486,886.93c-.747.433-.113.082,0,0Z" transform="translate(-492.324 -693.577)" fill="#474747"/>
                <path id="Path_64" data-name="Path 64" d="M566.76,891.413c.154-.1.267-.185.27-.223A1.141,1.141,0,0,1,566.76,891.413Z" transform="translate(-484.523 -696.501)" fill="#474747"/>
                <path id="Path_65" data-name="Path 65" d="M682.524,812.52c.019-.016.035-.031.057-.05C682.37,812.621,682.408,812.6,682.524,812.52Z" transform="translate(-563.896 -642.483)" fill="#474747"/>
                <path id="Path_66" data-name="Path 66" d="M575.56,887.682c.292-.144.624-.311.982-.5C576.385,887.262,576.087,887.412,575.56,887.682Z" transform="translate(-490.562 -693.749)" fill="#474747"/>
                <path id="Path_67" data-name="Path 67" d="M574.637,888.69c-.264.141-.468.251-.665.355C573.887,889.117,573.978,889.082,574.637,888.69Z" transform="translate(-489.454 -694.785)" fill="#474747"/>
                <path id="Path_68" data-name="Path 68" d="M579.921,885.03c-.427.245-.832.464-1.221.675.151-.075.217-.1.179-.078Z" transform="translate(-492.716 -692.274)" fill="#474747"/>
                <path id="Path_69" data-name="Path 69" d="M482.68,417.235c.057-.009.119-.022.182-.035C483.687,416.921,483.32,417.028,482.68,417.235Z" transform="translate(-426.827 -371.132)" fill="#474747"/>
                <path id="Path_70" data-name="Path 70" d="M716.606,635.835c.031.022.05.035.078.057-.028-.025-.066-.06-.094-.082Z" transform="translate(-587.337 -521.258)" fill="#474747"/>
                <path id="Path_71" data-name="Path 71" d="M708.79,630.32a10.326,10.326,0,0,1,1.384.841c.188.138.367.273.54.417s.342.3.524.461c-.176-.311-.342-.637-.533-.938-.32-.138-.634-.279-.954-.408Z" transform="translate(-581.984 -517.491)" fill="#474747"/>
                <path id="Path_72" data-name="Path 72" d="M324.006,375.13a18.12,18.12,0,0,0,1.908,1.249,14.4,14.4,0,0,1-2.78-1.528c-.242-.173-.358-.251-.314-.188a4.966,4.966,0,0,0,.672.628,5.9,5.9,0,0,1,1.418.675,25.628,25.628,0,0,0,2.78,1.277c2.046.794,4.158,1.262,4.352,1.089.464.144.932.27,1.4.4-.408-.088-.477-.082-.879-.173a7.953,7.953,0,0,0,2.529.424,21.828,21.828,0,0,1,3.151.273c1.246.182,2.115.323,1.255.286.935.063,1.867.107,2.8.144.81.063.609.126-.2.06,1.422.1,2.84.163,4.261.213l-.031.013c.612-.041,1.99-.1,2.661-.125,1.079.088-.543.031-.267.091l2.357-.057c.957.122-.995.207-2.623.148a7.492,7.492,0,0,0,2.394.188,38.567,38.567,0,0,1,4.308.031l-2.225.05c1.434.251,3.172.163,5.686.286-.6-.066-5.036-.345-2.482-.464a25.617,25.617,0,0,0,3.044-.066,11.593,11.593,0,0,0,3.041.056l-.11.2a22.861,22.861,0,0,0,2.739-.311,9.09,9.09,0,0,1,2.931.235c3.245-.053-2.247-.191,1.591-.329,2.7,0,4.588-.132,7.807-.336,1.886.022-.326.132.351.173l1.666-.2c.408-.006.279.047.21.072a17.712,17.712,0,0,1,2.325-.307c.593-.235,4.55.232,7.286-.031.675.053-.326.126-.119.2,3.756-.179,3.22-.135,6.307-.333l2.626.173c-1.927-.185.543-.329,2.711-.4-.684-.1-1.268-.176-1.66-.213,1.152-.009,2.306-.006,3.458,0,.417.05.066.1-.505.166.235-.009.461-.016.634-.022,1.23.129.587.213-.3.292-.417-.056-.835-.113-1.24-.169-.857.094-1.657.207-1.481.33.226-.019.656-.025,1.133-.019-.223.025-.367.05-.264.075a8.352,8.352,0,0,0,1.042-.041l.775.254.195-.081c1.5.11,3,.229,4.49.373,1.613-.006,3.125-.035,4.876.009a58.63,58.63,0,0,1,6.279.483c-1.283-.022-.308.223-.4.408a53.424,53.424,0,0,0-6.568-.719c1.374.144,1.061.216.709.21q2.358.137,4.71.352c-.126.144.979.248,2.184.5-.436-.226.442-.148,1.666.034s2.786.493,3.734.656c.091.138-.373.116-2.667-.345a14.64,14.64,0,0,0,2.909.515,11.271,11.271,0,0,1,2.859.593,5.459,5.459,0,0,0-1.083-.232,23.474,23.474,0,0,1,2.62.665c.847.26,1.428.5,1.048.424-.182-.056-.361-.113-.546-.163a61.1,61.1,0,0,1,6.784,2.513c2.266.988,4.06,2.03,4.371,2.065a2.068,2.068,0,0,1-.813-.056c1.036.442,2.049.941,3.05,1.487a31.6,31.6,0,0,1,2.906,1.842c-.295-.125-.119.314-.173.518s-.3.157-1.516-.81c.646.612,1.462,1.343,2.765,2.689-.367-.477-.8-1.334-.2-.744.684.935.9,1.265,1.167,1.647.129.191.282.386.474.7s.461.715.791,1.334c-.229-.392-.132-.43.122-.213a5.1,5.1,0,0,1,1.023,1.327c-.16-.169-.245.276-.546-.154a25.426,25.426,0,0,1,1.914,3.06c-.207-.4-.292-.408-.295-.22a5.543,5.543,0,0,0,.163.966,6.686,6.686,0,0,1,.533,1.428c.154.443.27.941.4,1.374s.2.825.27,1.054c-.091-.5-.179-1-.3-1.491.141.486.242.916.342,1.3s.191.715.27,1.02c.169.609.3,1.1.439,1.582a13.223,13.223,0,0,1,.5,4.017c-.031-.248-.154-.552-.26-.533s-.195.351-.26,1.368a20.263,20.263,0,0,1,.245,2.928,18.3,18.3,0,0,1-.634,4.933l-.32.637c-.254.9-.555,1.789-.882,2.67.22-.857.628-2.485.913-4.23a36.607,36.607,0,0,0,.468-4.908,6.6,6.6,0,0,1-.232,1.036c-.06.191-.082.483-.314,1.591-.129.38-.1.069-.028-.414s.157-1.148.213-1.475a30.694,30.694,0,0,1-1.265,5.068c.138-.078-.119.894-.439,1.858-.163.48-.339.957-.452,1.312s-.191.571-.129.543a34.779,34.779,0,0,0,1.72-5.473c.129-.088.082.756-.226,2.065a22.323,22.323,0,0,1-1.748,4.767c-.5.828-.019-.81-.122-.769-.034.119-.144.38-.289.712-.075.166-.157.351-.242.543s-.191.386-.289.584a16.878,16.878,0,0,1-.926,1.669c.226-.486.471-.96.681-1.45-.53.9-.9,1.673-1.331,2.476a15.192,15.192,0,0,1-1.729,2.614c-.264.348-.687.844-1.067,1.261a3.5,3.5,0,0,0-.681.869c1.045-.985,1.82-.778,1.384.1-.05.06-.264.314-.562.672s-.7.81-1.127,1.268c-.844.926-1.779,1.876-2.162,2.212-.555.477-.273,0,.022-.5s.6-1.023.135-.612a5.711,5.711,0,0,1-.665.988c-.656.65.132-.392-1.2,1.1-.056.4-2.827,2.925-.515.816-.659.725-1.026,1.1-1.437,1.478s-.854.8-1.679,1.6c.628-.408-1.164,1.776-2.608,3.129.05-.116-.326.122-.508.242-1.522,1.321-2.724,2.3-3.919,3.229s-2.366,1.833-3.863,2.965c-.3.173-1.795,1.2-1.23.668a21.081,21.081,0,0,1-1.7,1.393c-1.92,1.167,2.068-1.544.559-.715a9.236,9.236,0,0,1-1.34,1.145l-2.3,1.748a30.809,30.809,0,0,0,4.415-3.213c.163.2-1.974,2.159-5.159,4.484-2.551,1.811-1.221.615-1.647.954-2.454,1.61-3.452,2.372-4.349,3.063a27.1,27.1,0,0,1-3.838,2.482c-1.742.86-.248-.242-.678-.122,2.14-1.374,3.38-1.961,4.836-2.89L411,462.488c.656-.477,2.068-1.422,2.871-1.886-.722.377-2.809,1.71-5.237,3.182s-5.193,3.091-7.2,4.148c-.672.446-1.851,1.177-1.246.913l1.236-.725c1.214-.53-2.253,1.491-.643.653a63.019,63.019,0,0,1-5.862,3.423l-.54.069a15.1,15.1,0,0,0,2.253-1.152c-.951.615-3.775,1.738-4.754,2.532l1.742-.769c-1.66.992-3.684,2.278-5.852,3.311,1.061-.323.483-.27,2.1-.85-.722.217.646-.483,1.908-1.142s2.419-1.274,1.3-.847c1.666-.593,2.727-1.324,4.839-2.234-.094-.022-.769.286,1.014-.662.072-.06.248-.185.361-.264l.122-.063c-.038.016-.063.031-.1.047.072-.05.078-.057-.038.019a8.356,8.356,0,0,1-.945.414c.806-.609,3.6-2.175,4.5-2.787,1.051-.568-.4.311.2.047l1.343-.91c.21.047,2.859-1.412.471.091l2.187-1.287a45.815,45.815,0,0,0,4.139-2.47c1.032-.609,2.476-1.748,1.654-1.1q1.657-1.106,3.295-2.241l.05.009c3.289-2.162,6.552-4.741,10.277-7.274,1.026-.841,2.084-1.707,3.822-3.085l.411-.182c.32-.282.731-.621,1.174-.982s.91-.756,1.356-1.123a18.392,18.392,0,0,0,1.889-1.735,28.361,28.361,0,0,0,3.879-3.486c1.556-1.588,3.113-3.376,4.111-4.509l-.047-.188a50.064,50.064,0,0,0,3.976-5.313l-.2.05c.581-.945,1.39-2.115,2.231-3.464a35.972,35.972,0,0,0,2.4-4.506,8.957,8.957,0,0,1-.741,1.6,23.457,23.457,0,0,0,2.416-6.044,53.492,53.492,0,0,0,1.136-6.135c.034-.96.063-1.651.11-2.325,0,.088.006.169.006.239.006-.1,0-.245,0-.4.013-.424.056-.863.041-1.337,0,.4-.038.791-.044,1.127,0-.37-.013-.838-.06-1.346-.028-.511-.1-1.064-.176-1.607.031-.16.072-.323.094-.483-.016-.088-.025-.16-.041-.251-.1-1.083-.2-.847-.226-.264a13.432,13.432,0,0,0-.342-1.412,6.277,6.277,0,0,0-.355-1.88c-.113-.361-.226-.734-.323-1.092a5.86,5.86,0,0,1-.223-1c-.085-.166-.267-.568-.483-1.086-.1-.26-.248-.54-.38-.838-.069-.147-.141-.3-.21-.452l-.235-.452a17.977,17.977,0,0,0-.951-1.638,4.419,4.419,0,0,0-.69-.857c.006-.047-.144-.333.163.169a16.012,16.012,0,0,0-2.059-2.852c-.053-.179-.125-.345-.188-.518-.323-.311-.646-.615-.988-.9s-.678-.574-1.026-.85c-.537-.6-.945-1-1.036-1.155s.119-.041.766.446c-1.525-1.214-2.181-1.641-2.768-2.049a21.507,21.507,0,0,0-2.576-1.513l.2-.022c-1-.615-2.736-1.331-3.329-1.72a38.089,38.089,0,0,0-7.688-3.053,104.21,104.21,0,0,0-11.043-2.5c.612.279-.147.113-1.1-.069a7.42,7.42,0,0,0-2.253-.264c-.377-.132-1.3-.282-.21-.235a62.053,62.053,0,0,0-7.453-.568c-.383-.113.734-.078.392-.154a9.653,9.653,0,0,1-1.437-.069c-.342-.072.5-.041,1.045-.044-3.477-.2-3.841.078-4.1.311a16.11,16.11,0,0,0-3.907-.072c-.609-.1-1.629-.21.527-.185-.606-.022-2.46-.1-4.177-.122a18.763,18.763,0,0,0-3.358.1,17.9,17.9,0,0,0-2.015.009c-2.721,0-2.959-.009-5.63.047l.741.022a27.66,27.66,0,0,1-4.371.163l.06-.025c-4.939-.06-2.128.132-7,.06l.27.144c-.446.336-4.315-.072-7.136.126l1.02.06c-1.541.154-4.321-.333-5.868-.342-.339-.022.53-.053,1-.088-4.054-.113-.521.21-3.54.307-.559-.1.712-.279-1.318-.273-1.01-.066-5.887.392-8.651.116.609.094,1.211.188-.188.22-2.153-.009-5.777-.508-7.719-.424-.27-.044-.37-.072-.38-.094-.816-.034-2.143-.129-3.383-.251s-2.4-.251-2.893-.273c-.7-.38-3.2-.769-5.429-1.428a18.875,18.875,0,0,1-2.9-1.064,7,7,0,0,1-.85-.474c-.188-.138-.279-.235-.245-.286a11.492,11.492,0,0,1-3.653-3.088l.113.072a10.37,10.37,0,0,1-1.513-2.937,16.275,16.275,0,0,1-.5-1.817c-.016-.722.066-.2.091-.144a13.726,13.726,0,0,1,.116-2.752c.094-.737.21-1.337.326-1.911.05-.289.125-.568.185-.86s.138-.59.22-.913c.166-.646.326-1.4.618-2.338l.282-.329c.035-.129.1-.323.188-.574s.229-.546.38-.891.311-.741.524-1.155.433-.866.672-1.343a64.628,64.628,0,0,1,3.605-5.956,1.76,1.76,0,0,1-.238.449,34.274,34.274,0,0,1,5.488-6.216,56.168,56.168,0,0,0,4.346-3.97c.885-.715,1.779-1.422,2.7-2.09-3.668,2.479.4-.587-1.158.37,1.418-1.032,3.888-2.306,2.084-1.145l-.3.154c-.248.339.916-.392,2.178-1.127a13.488,13.488,0,0,1,2.614-1.349q2.871-1.553,5.827-2.843t5.946-2.363c3.985-1.434,7.977-2.642,11.918-3.728l-.97.031c.916-.254,1.836-.505,2.758-.744.737-.141,1.017-.085-.951.43a13.389,13.389,0,0,0,2.04-.555,10.651,10.651,0,0,0,1.277-.477c1.946-.446,1.585-.276.885-.05s-1.732.546-1.142.4l1.6-.424-.37.063a27.72,27.72,0,0,1,3.762-1.089,7.275,7.275,0,0,1,1.4-.166c0,.009.05,0,.191-.025s.367-.085.725-.173c1.174-.254,2.344-.505,3.521-.744l-1.447.122c1.541-.424,3.317-.69,1.647-.552,1.224-.1,4.522-.747,7.707-1.356s6.254-1.2,7-1.287c2.178-.533,4.352-.923,7.048-1.4-.678.085-1.114-.044,1.214-.439-.775.568,4.286-.593,6.219-.653-.857.056.791-.26,2.319-.577s2.928-.628,1.588-.508c1.942-.345.147.132,1.635-.06,4.569-1.079,10.164-1.986,15.771-3.574.072-.075-.888.094.292-.308,1.007-.191,2.021-.38,3.028-.593a14.266,14.266,0,0,1,2.972-1.089c-.3.047-.741.119-.013-.138a72.6,72.6,0,0,0,15.9-6.982,44.131,44.131,0,0,0,13.23-11.56c-.5.631-.606.719-.49.53.057-.094.166-.257.3-.461s.286-.461.449-.719c-.442.659-.107-.088-.251,0a23.52,23.52,0,0,0,2.385-4.312c.053-.461.5-1.71.744-2.972a8.612,8.612,0,0,0,.242-2.758,15.275,15.275,0,0,1-.11,1.563c.009-1.048-.188-.326-.48.565s-.744,1.946-.85,1.76A12.143,12.143,0,0,1,470,286.451c-.828,1.434-1.889,2.912-2.906,4.456-.552.6.355-.6.031-.307-.119.2-.251.411-.4.634s-.348.443-.562.694-.442.537-.744.825-.628.612-1,.976l.144-.191c-.251.267-.518.5-.769.734l-.737.672c-.48.43-.963.8-1.412,1.167s-.913.69-1.356,1.017-.882.646-1.349.935-.926.6-1.409.907l-1.553.907c-.273.157-.546.326-.844.483s-.6.317-.916.483c-.634.333-1.3.7-2.052,1.048l.508-.085c-1.287.618-1.575.709-2.187.973-1.368.932,3.59-1.77,2.369-.885a21.681,21.681,0,0,0-2.2.944c-.963.427-2.093.932-3.213,1.415-1.136.449-2.244.916-3.166,1.233a12.007,12.007,0,0,1-1.977.555c-2.065.744.668-.041-1.409.675l-.584.094-.49.286a6.445,6.445,0,0,1-2.178.48c.339-.088.938-.326,1.293-.446-1.8.5-5.03,1.553-5.664,1.676.687-.16,1.368-.333,2.052-.508-5.746,1.754-12.963,3.169-18.64,4.462l.449-.016c-4.343.97-3.511.6-8.3,1.547l.173-.047c-.948.245-2.228.515-3.543.744,1.2-.3-2.313.257-.737-.122a43.245,43.245,0,0,0-5.419,1.359l-.744.019a28.29,28.29,0,0,1-3.524.844c1.949-.464-1.566.113.618-.43-5.087.69-7.424,1.679-9.8,1.786-1.12.392-.025.216,1.189-.019a11.691,11.691,0,0,1,1.914-.351c1.1-.11-1.861.609-3.439.9-1.6.326-2.812.151-6.834,1.061.4-.088.424-.119.822-.207-1.525.257-2.925.778-4.795,1.1-.985.436-2.388.587-2.623.9,1.214-.336,2.435-.653,3.656-.97-2.068.571-3.948,1.327-7.387,2.131.251-.125,1.246-.468,1.936-.687-1.02.191-1.9.571-2.959.788a11.132,11.132,0,0,1,2.567-.86c1.349-.373,2.947-.778,4.039-1.145a23.831,23.831,0,0,0-2.369.618c-.772.226-1.274.367-.75.088-1.519.753-3.945,1.017-6.546,2.084l.132-.2c-.414.157-1.274.483-2.049.734.449-.217.9-.417,1.349-.624-2.115.825-4.211,1.2-6.232,2.027,1.07-.4,1.676-.584,2-.678s.38-.082.355-.044c-.05.078-.4.279.521.019-.656.251-1.2.449-1.654.609s-.825.295-1.142.4c-.634.2-1.051.295-1.487.4a23.418,23.418,0,0,0-4.735,1.691c.772-.37,3-1.145,1.786-.581-.565.2-1.208.468-1.807.693s-1.142.433-1.494.552c-3.784,1.785.643-.135-.932.693a17.878,17.878,0,0,0-3.417,1.845l-.082-.129c-2.124,1.086-2.35,1.324-2.535,1.522a2.09,2.09,0,0,1-.461.383c-.289.195-.8.486-1.713,1.039.474-.383.948-.766,1.437-1.126-.64.386-1.255.81-1.88,1.221l.3-.392c-1.99,1.422-2.627,1.826-4.572,3.229.251-.129.232-.025-.06.27s-.857.778-1.66,1.469c-.581.427-.452.27-.458.251s-.044.012-.226.16-.49.436-1.042.944c.22-.26.449-.54.753-.85a8.159,8.159,0,0,1,1.255-.995c.072-.122.452-.505.534-.624a31.85,31.85,0,0,0-3.775,3.3c.308-.289.665-.64.875-.791-.511.518-1,1.064-1.5,1.594-.474.555-.954,1.1-1.412,1.663-.49.483-.176.035.157-.4-.295.329-.515.634-.781.97s-.565.706-.957,1.224c.119-.336-.057-.373,1.117-1.808-.436.546-.888,1.076-1.293,1.644s-.835,1.117-1.214,1.7c-.1.1-.446.512-.731.844-.267.342-.477.6-.348.361a25.283,25.283,0,0,0-2.046,3.558c-.166.342-.333.69-.5,1.039s-.314.715-.477,1.07-.33.712-.48,1.073-.3.719-.461,1.067c-.031.16-.157.455-.351,1.079-.515,1.349-.966,2.62-1.362,4.01a14.9,14.9,0,0,0-.577,4.707,13.139,13.139,0,0,0-.066,2.055c.3,1.409.232.694.213.232-.013-.232.006-.4.066-.232.082.169.154.7.543,1.8a14.755,14.755,0,0,0,.643,1.475c.119.264.141.355.129.386-.031.069-.226-.091.063.43a12.748,12.748,0,0,0,2.3,2.335,26.211,26.211,0,0,0,3.536,2.275A18.243,18.243,0,0,1,324.006,375.13Zm32.067,4.986a14.578,14.578,0,0,1-2.344.044A8.15,8.15,0,0,1,356.073,380.116Zm49.216-.706a14.074,14.074,0,0,1-2-.132C403.883,379.291,404.552,379.329,405.289,379.41Zm3.373,85.243c.022-.016.038-.028.053-.041C409.946,463.931,409.51,464.17,408.663,464.653ZM406.13,466.1c-.242.166-.213.176-.1.132a15.5,15.5,0,0,1,1.362-.847A7.171,7.171,0,0,0,406.13,466.1ZM379.417,321.081l-.559.085C380.091,320.843,379.749,320.962,379.417,321.081Z" transform="translate(-314.407 -276.174)" fill="#474747"/>
                <path id="Path_73" data-name="Path 73" d="M575.6,599.478a.6.6,0,0,1-.267-.088C575.087,599.409,575.084,599.437,575.6,599.478Z" transform="translate(-490.296 -496.267)" fill="#474747"/>
                <path id="Path_74" data-name="Path 74" d="M326.25,524.625l.041-.091a.3.3,0,0,0,.013-.1Z" transform="translate(-319.485 -444.829)" fill="#474747"/>
                <path id="Path_75" data-name="Path 75" d="M707.59,783.643c.414-.427.65-.662.816-.81C708.393,782.783,708.208,782.978,707.59,783.643Z" transform="translate(-581.161 -622.141)" fill="#474747"/>
                <path id="Path_76" data-name="Path 76" d="M554.4,898.72l1.632-.91c-.794.433-1.092.555-1.509.744C554.576,898.566,554.915,898.447,554.4,898.72Z" transform="translate(-476.042 -701.043)" fill="#474747"/>
                <path id="Path_77" data-name="Path 77" d="M505.276,920.621c-.239.135-.521.248-.756.38l.1.032C505.665,920.533,506.371,920.128,505.276,920.621Z" transform="translate(-441.814 -716.543)" fill="#474747"/>
                <path id="Path_78" data-name="Path 78" d="M543.62,901.845a11.994,11.994,0,0,0-2.36,1.148c.069-.035.135-.069.207-.107C541.2,903.222,542.418,902.538,543.62,901.845Z" transform="translate(-467.025 -703.81)" fill="#474747"/>
                <path id="Path_79" data-name="Path 79" d="M538.029,905.96c-.354.191-.722.377-1.076.549C536.849,906.644,537.4,906.305,538.029,905.96Z" transform="translate(-464.06 -706.636)" fill="#474747"/>
                <path id="Path_80" data-name="Path 80" d="M585.564,880.854c-.555.279-.257.336-.587.464C584.46,881.807,588.461,879.081,585.564,880.854Z" transform="translate(-496.992 -688.991)" fill="#474747"/>
                <path id="Path_81" data-name="Path 81" d="M545.18,901.064l.486-.075.59-.449Z" transform="translate(-469.715 -702.917)" fill="#474747"/>
                <path id="Path_82" data-name="Path 82" d="M569.239,887.02l-1.845.969c.041.01-.185.148-.464.317C568.06,887.695,569.305,887.039,569.239,887.02Z" transform="translate(-484.64 -693.639)" fill="#474747"/>
                <path id="Path_83" data-name="Path 83" d="M563.722,891.12c-.59.32-1.148.621-1.462.822C562.577,891.766,563.261,891.4,563.722,891.12Z" transform="translate(-481.435 -696.453)" fill="#474747"/>
                <path id="Path_84" data-name="Path 84" d="M553.16,895.818l.559-.257,1.305-.681Z" transform="translate(-475.191 -699.033)" fill="#474747"/>
                <path id="Path_85" data-name="Path 85" d="M635.063,846.765l1.848-1.33c.16-.176-.367.151-1.051.653C635.433,846.427,634.746,846.919,635.063,846.765Z" transform="translate(-531.337 -665.07)" fill="#474747"/>
                <path id="Path_86" data-name="Path 86" d="M616.18,859.28a6.942,6.942,0,0,1,.91-.439l-.047-.2Z" transform="translate(-518.435 -674.165)" fill="#474747"/>
                <path id="Path_87" data-name="Path 87" d="M632.108,846.712c.16-.169,2.63-1.992.264-.355C632.214,846.533,630.357,847.848,632.108,846.712Z" transform="translate(-528.853 -665.271)" fill="#474747"/>
                <path id="Path_88" data-name="Path 88" d="M715.324,778.04l-.364.449.3.138Z" transform="translate(-586.218 -618.857)" fill="#474747"/>
                <path id="Path_89" data-name="Path 89" d="M745.12,689.725a5.871,5.871,0,0,0,.2,1.575.8.8,0,0,1,.075.3,7.141,7.141,0,0,1,.022,1.1c.041.307.057-.176.066-.662-.009-.483-.019-.967.031-.653C745.33,689.8,745.22,688.981,745.12,689.725Z" transform="translate(-606.914 -558.065)" fill="#474747"/>
                <path id="Path_90" data-name="Path 90" d="M746.37,695.62c.028.254.06.524.091.81C746.423,695.968,746.389,695.752,746.37,695.62Z" transform="translate(-607.772 -562.3)" fill="#474747"/>
                <path id="Path_91" data-name="Path 91" d="M810.46,282.815a17.873,17.873,0,0,0,.32-1.785c-.063.389-.163.769-.248,1.148Z" transform="translate(-651.751 -277.807)" fill="#474747"/>
                <path id="Path_92" data-name="Path 92" d="M810.473,272.3c.069-.141.126-.289.188-.436a10.506,10.506,0,0,0-.3-1.108A6.257,6.257,0,0,1,810.473,272.3Z" transform="translate(-651.682 -270.76)" fill="#474747"/>
                <path id="Path_93" data-name="Path 93" d="M449.9,602.927l.132-.05a10.083,10.083,0,0,0-1.49-.041Z" transform="translate(-403.4 -498.63)" fill="#474747"/>
                <path id="Path_94" data-name="Path 94" d="M376.87,599.5l.4.06-.734-.286Z" transform="translate(-353.994 -496.184)" fill="#474747"/>
                <path id="Path_95" data-name="Path 95" d="M320.87,571.035a10.708,10.708,0,0,0,1.5,2.441,8.042,8.042,0,0,1-1.167-1.93C321,571.088,320.93,570.875,320.87,571.035Z" transform="translate(-315.793 -476.773)" fill="#474747"/>
              </g>
            </g>
          </g>
        </g>
      </g>
    </g>
    <text id="Join_me_on_my_personal_journey" data-name="Join me on my personal journey" transform="translate(214 459)" fill="#fefefe" font-size="14" font-family="SegoeUI, Segoe UI"><tspan x="-98.714" y="0">Join me on my personal journey</tspan></text>
  </g>
</svg>
