<?xml version="1.0" encoding="utf-8"?>
<!-- Generator: Adobe Illustrator 26.0.1, SVG Export Plug-In . SVG Version: 6.00 Build 0)  -->
<svg version="1.1" id="Layer_1" xmlns="http://www.w3.org/2000/svg" xmlns:xlink="http://www.w3.org/1999/xlink" x="0px" y="0px"
	 viewBox="0 0 1080 1080" style="enable-background:new 0 0 1080 1080;" xml:space="preserve">
<style type="text/css">
	.st0{fill:#474747;}
</style>
<path class="st0" d="M914.06,152.55c-1.22,3.37-2.44,6.73-3.65,10.1c-0.32,0.31-0.78,0.55-0.95,0.93
	c-3.33,7.13-7.54,13.6-13.75,18.59c-14.27,11.46-28.47,22.99-42.84,34.32c-12.83,10.12-25.84,20.01-38.77,30
	c-0.37-0.14-0.75-0.27-1.12-0.41c0.05-0.38,0.21-0.78,0.13-1.13c-2.9-12.7-5.94-25.37-8.72-38.1c-3.7-16.9-7.33-33.82-10.76-50.77
	c-1.25-6.17-2.28-12.46-2.63-18.73c-0.26-4.74,0.73-9.54,1.16-14.31c1.9-5.24,3.79-10.48,5.69-15.71c0.9-1.31,1.87-2.59,2.69-3.95
	c8.12-13.43,19.86-22.23,34.74-26.82c9.69-2.99,19.58-3.88,29.6-1.53c2.11,0.5,4.28,0.76,6.43,1.12c2.43,0.88,4.86,1.76,7.29,2.64
	c0.22,0.29,0.37,0.72,0.66,0.84c8.71,3.64,16.02,9.16,22.03,16.42c11.37,13.72,16.13,29.45,14.25,47.16
	C915.18,146.33,914.55,149.43,914.06,152.55z M862.75,111.12c-13.58-5.57-29.61,2.42-34.47,15.37
	c-5.31,14.17,2.15,29.57,14.66,34.64c15.25,6.19,30.89-1.75,35.97-15.51C883.83,132.27,877.81,116.54,862.75,111.12z"/>
<path class="st0" d="M305.09,810.9c2.02,4.37,4.05,8.74,6.07,13.12c-0.02,0.6-0.22,1.27-0.03,1.79c3.56,9.97,5.67,20.14,4.45,30.79
	c-2.79,24.46-5.45,48.94-8.45,73.37c-2.68,21.82-5.75,43.59-8.65,65.38c-0.49,0.22-0.97,0.45-1.46,0.67
	c-0.31-0.41-0.54-0.95-0.95-1.21c-14.8-9.39-29.69-18.63-44.41-28.15c-19.54-12.65-39.02-25.39-58.36-38.34
	c-7.04-4.72-13.97-9.74-20.25-15.42c-4.73-4.28-8.34-9.81-12.45-14.78c-3.15-6.8-6.3-13.6-9.44-20.4c-0.38-2.11-0.67-4.24-1.17-6.32
	c-4.95-20.52-2.06-40.06,7.81-58.53c6.43-12.03,15.04-22.25,26.84-29.49c2.49-1.53,4.81-3.33,7.21-5.01
	c3.16-1.46,6.31-2.92,9.47-4.38c0.48,0.07,1.03,0.34,1.42,0.18c11.77-4.77,23.98-6.41,36.6-5.17c23.86,2.34,43.3,12.87,58.28,31.59
	C300.27,803.89,302.61,807.45,305.09,810.9z M216.82,819.89c-18.25,7.54-26.01,30.35-18.39,47.33
	c8.34,18.58,30.06,26.22,46.81,19.24c20.44-8.52,27.87-30.92,19.7-48.88C257,820.14,236.35,810.81,216.82,819.89z"/>
<g>
	<g>
		<g>
			<g>
				<g>
					<path class="st0" d="M306.42,1003.43c-2.37,0.72-1.4,0.85-1.73,1.03C308.62,1003.12,306.28,1003.36,306.42,1003.43z"/>
					<polygon class="st0" points="344.64,989.43 344.02,989.83 349.52,987.43 					"/>
					<path class="st0" d="M380.34,976.35c-3.61,0.61-12.86,4.95-19.31,7.03l-1.1,0.23l-2.68,1.58
						C364.96,982.31,374.85,978.22,380.34,976.35z"/>
					<path class="st0" d="M399.82,970.52c-1.27,0.19,4-1.81-4.44,1.63c0.44-0.13,0.57-0.17,0.82-0.24
						C396.97,971.62,398.03,971.21,399.82,970.52z"/>
					<path class="st0" d="M396.21,971.91C392.48,973.38,398.74,971.18,396.21,971.91L396.21,971.91z"/>
					<path class="st0" d="M413.37,964.98l-4.81,2.18c1.09-0.25,5.46-1.96,3.89-1.2C417.42,963.83,416.33,964.09,413.37,964.98z"/>
					<path class="st0" d="M417.82,962.63l-2.5,1.12C415.79,963.64,416.47,963.39,417.82,962.63z"/>
					<path class="st0" d="M410.02,966.11l5.3-2.36c-0.75,0.18-0.91-0.01-2.44,1.06C413.24,964.44,412.25,965.06,410.02,966.11z"/>
					<path class="st0" d="M406.92,967.22c-2.81,0.95-6.41,2.25-1.57,0.08C395.99,971.07,397.56,971.01,406.92,967.22z"/>
					<path class="st0" d="M381.89,974.98l-3.77,1.2l-3.12,1.43C376.56,976.9,382.2,975.1,381.89,974.98z"/>
					<path class="st0" d="M443.93,952.84c0.24-0.27-1.79,0.31-2.23,0.29l-3.53,1.67C440.06,954.12,443.6,952.74,443.93,952.84z"/>
					<path class="st0" d="M441.7,953.13l5.27-2.51C442.17,952.63,441.33,953.1,441.7,953.13z"/>
					<polygon class="st0" points="418.39,961.55 409.71,965.62 420.1,960.85 					"/>
					<polygon class="st0" points="464.42,944.08 461.53,945.72 466.72,942.88 					"/>
					<path class="st0" d="M477.92,938.04c-2.12,1.27,3.27-0.92,0.98,0.3c3.65-1.69,6.67-3.34,9.38-4.82
						C485.35,934.99,482.15,936.41,477.92,938.04z"/>
					<path class="st0" d="M492.86,931.06c-1.46,0.75-2.95,1.57-4.58,2.46C489.84,932.73,491.36,931.93,492.86,931.06z"/>
					<path class="st0" d="M456.14,946.79c0.45-0.1,1.34-0.22,4.39-1.42l-2.28,0.52C457.61,946.16,456.88,946.48,456.14,946.79z"/>
					<path class="st0" d="M458.17,945.91l0.08-0.02c2.29-0.98,3.88-1.66,4.56-1.95C462.22,944.19,460.83,944.78,458.17,945.91z"/>
					<path class="st0" d="M455.61,947.02c0.2-0.08,0.34-0.15,0.53-0.23C455.92,946.84,455.79,946.88,455.61,947.02z"/>
					<path class="st0" d="M432.69,956.13c3.08-1.53,9.57-4.51,3.05-2.19C433.58,955.15,437.31,953.82,432.69,956.13z"/>
					<path class="st0" d="M452.78,947.65l-5.74,2.34c0.16,0.06,1.25-0.23-0.27,0.54L452.78,947.65z"/>
					<polygon class="st0" points="455.51,946.33 452.78,947.65 454.91,946.78 					"/>
					<path class="st0" d="M483.03,935.1c2.36-1.27,5.02-2.5,8.01-3.91c-3.26,1.4-6.61,2.88-9.78,4.31
						C480.87,935.83,479.58,936.68,483.03,935.1z"/>
					<path class="st0" d="M470.96,940.37c0.17-0.08,0.38-0.19,0.53-0.26C471.14,940.23,470.87,940.33,470.96,940.37z"/>
					<path class="st0" d="M520.48,917.27c-0.17,0.06-0.33,0.1-0.5,0.16c-0.03,0.04-0.04,0.07-0.08,0.12L520.48,917.27z"/>
					<path class="st0" d="M480.69,935.68c-2.46,1.01-3.87,1.76-5.21,2.5c1.8-0.85,3.72-1.74,5.78-2.67
						C481.44,935.36,481.46,935.31,480.69,935.68z"/>
					<path class="st0" d="M501.01,927.05c-1.3,0.51-2.75,1.11-4.28,1.74C498.02,928.34,500.61,927.36,501.01,927.05z"/>
					<path class="st0" d="M472.36,939.85c-0.12,0.06-0.23,0.11-0.36,0.18C472.84,939.76,472.72,939.77,472.36,939.85z"/>
					<path class="st0" d="M472.36,939.85c1.23-0.61,2.17-1.15,3.12-1.67c-1.47,0.69-2.82,1.34-3.99,1.93
						C471.81,940,472.13,939.91,472.36,939.85z"/>
					<path class="st0" d="M528.11,910.45c-0.24,0.56-6.35,4-11.97,6.25c-5.22,2.85-1.16,2.34,3.83,0.72
						c0.09-0.24,0.02-0.37,5.41-3.29c-2.01,0.77-12.43,5.5-7.94,2.93c7.19-3.74,6.03-2.79,9.65-4.35c-3.21,1.05,8.91-5.24,7-5.11
						l-6.24,3.41C527.7,910.98,529.92,909.66,528.11,910.45z"/>
					<path class="st0" d="M509.45,922.46l-2.25,1.13c2.62-1.18,4.55-1.91,8.09-3.28c3.69-2,4.41-2.51,4.61-2.76l-11.2,5.33
						L509.45,922.46z"/>
					<path class="st0" d="M496.95,928.4c1.6-1.22,7-3.95,3.45-2.8c-6.68,3.16-4.54,2.51-8.47,4.54c10.78-5.1-3.01,1.66,4.92-1.74
						c-2.1,1.05-4,1.96-5.8,2.81c1.98-0.84,3.89-1.65,5.69-2.41c-0.1,0.04-0.18,0.06-0.26,0.09l-0.05,0.02l0.01-0.01
						c-0.49,0.17-0.66,0.21-0.12-0.01c0.04-0.02,0.16-0.08,0.22-0.11C496.58,928.68,496.76,928.54,496.95,928.4
						c3.17-1.38,0.54-0.13-0.42,0.38c-0.03,0.04-0.1,0.09-0.1,0.12c0.01,0,0.03-0.01,0.04-0.01l10.72-5.29
						C504.88,924.61,502.02,925.98,496.95,928.4z"/>
					<path class="st0" d="M441.26,950.62c0.36-0.11,0.35-0.07,0.39-0.06C442.34,950.22,442.59,950.08,441.26,950.62z"/>
					<path class="st0" d="M445.88,948.96c-0.78,0.39-1.37,0.84-3.99,1.89c-2.31,0.83-0.07-0.19-0.24-0.28
						c-1.52,0.76-5.37,2.59-0.37,0.72l0.76-0.38c4.49-1.72,10.38-3.66,9.63-3.27C450.22,947.83,448.97,948.06,445.88,948.96z"/>
					<path class="st0" d="M471.77,938.66l8.99-4.25l-4.77,1.73l0.33,0.1C471.11,938.47,472.34,938.22,471.77,938.66z"/>
					<polygon class="st0" points="521.6,916.96 520.61,917.95 525.49,914.84 					"/>
					<polygon class="st0" points="533.17,911.17 532.92,911.74 535.86,909.99 					"/>
					<path class="st0" d="M384.65,600.19l-2.94-0.21C383.1,600.11,384,600.15,384.65,600.19z"/>
					<path class="st0" d="M405.88,601.72l0.53-0.17C405.42,601.61,405.02,601.67,405.88,601.72z"/>
					<path class="st0" d="M750.83,696.45c0.22-4.39,0.01-9.35-0.36-8.76l-0.23,1.39c0.24,1.51,0.35,2.86,0.47,4.07
						C750.82,694.37,750.82,695.45,750.83,696.45z"/>
					<path class="st0" d="M579.18,598.17c0.4,0.06,0.82,0.11,1.24,0.17c1.04-0.11,2.01-0.22,2.89-0.31
						C582.06,598.07,580.65,598.12,579.18,598.17z"/>
					<path class="st0" d="M576.13,599.87l-5.59-0.41C571.8,599.57,573.59,599.72,576.13,599.87z"/>
					<path class="st0" d="M326.42,524.42l0.92-3.39C325.26,526.08,326.39,523.94,326.42,524.42z"/>
					<path class="st0" d="M647.24,843.74c3.09-2.01,5.51-3.68,7.59-5.2C651.12,840.98,647.99,842.76,647.24,843.74z"/>
					<path class="st0" d="M393.35,596.35c-1.77-0.06-2.54-0.04-2.49,0.06C392.69,596.48,393.72,596.48,393.35,596.35z"/>
					<path class="st0" d="M663.33,832.11c-0.53,0.37-1.06,0.74-1.6,1.11c-2.11,1.68-4.22,3.39-6.89,5.31
						C657.59,836.74,660.66,834.56,663.33,832.11z"/>
					<path class="st0" d="M701.46,369.31c0.29-0.08,0.64-0.17,0.91-0.24C702.44,368.99,702.04,369.11,701.46,369.31z"/>
					<path class="st0" d="M802.83,306.1c-0.29,0.54-0.67,1.26-1.09,2.04c-0.42,0.79-0.97,1.59-1.46,2.41
						c0.26-0.38,0.59-0.9,1.03-1.61C801.74,308.23,802.21,307.28,802.83,306.1z"/>
					<path class="st0" d="M579.27,886.93C576.89,888.31,578.91,887.19,579.27,886.93L579.27,886.93z"/>
					<path class="st0" d="M566.76,891.9c0.49-0.32,0.85-0.59,0.86-0.71C567.47,891.39,567.17,891.63,566.76,891.9z"/>
					<path class="st0" d="M682.73,812.63c0.06-0.05,0.11-0.1,0.18-0.16C682.24,812.95,682.36,812.87,682.73,812.63z"/>
					<path class="st0" d="M575.56,888.78c0.93-0.46,1.99-0.99,3.13-1.6C578.19,887.44,577.24,887.92,575.56,888.78z"/>
					<path class="st0" d="M576.15,888.69c-0.84,0.45-1.49,0.8-2.12,1.13C573.76,890.05,574.05,889.94,576.15,888.69z"/>
					<path class="st0" d="M582.59,885.03c-1.36,0.78-2.65,1.48-3.89,2.15c0.48-0.24,0.69-0.33,0.57-0.25
						C579.97,886.53,580.95,885.97,582.59,885.03z"/>
					<path class="st0" d="M482.68,417.68c0.18-0.03,0.38-0.07,0.58-0.11C485.89,416.68,484.72,417.02,482.68,417.68z"/>
					<path class="st0" d="M716.64,635.89c0.1,0.07,0.16,0.11,0.25,0.18c-0.09-0.08-0.21-0.19-0.3-0.26L716.64,635.89z"/>
					<path class="st0" d="M708.79,630.32c1.82,0.97,3.22,1.78,4.41,2.68c0.6,0.44,1.17,0.87,1.72,1.33
						c0.54,0.48,1.09,0.96,1.67,1.47c-0.56-0.99-1.09-2.03-1.7-2.99c-1.02-0.44-2.02-0.89-3.04-1.3L708.79,630.32z"/>
					<path class="st0" d="M335.28,586.11c1.95,1.44,3.97,2.8,6.08,3.98c-4.07-1.65-7.32-3.79-8.86-4.87c-0.77-0.55-1.14-0.8-1-0.6
						c0.15,0.19,0.77,0.88,2.14,2c0.41-0.12,2.09,0.88,4.52,2.15c2.42,1.29,5.6,2.82,8.86,4.07c6.52,2.53,13.25,4.02,13.87,3.47
						c1.48,0.46,2.97,0.86,4.47,1.28c-1.3-0.28-1.52-0.26-2.8-0.55c4.34,1.29,6.05,1.3,8.06,1.35c2.02,0.03,4.34,0.07,10.04,0.87
						c3.97,0.58,6.74,1.03,4,0.91c2.98,0.2,5.95,0.34,8.92,0.46c2.58,0.2,1.94,0.4-0.64,0.19c4.53,0.31,9.05,0.52,13.58,0.68
						l-0.1,0.04c1.95-0.13,6.34-0.31,8.48-0.4c3.44,0.28-1.73,0.1-0.85,0.29l7.51-0.18c3.05,0.39-3.17,0.66-8.36,0.47
						c3.49,0.77,5.05,0.72,7.63,0.6c2.58-0.12,6.16-0.29,13.73,0.1l-7.09,0.16c4.57,0.8,10.11,0.52,18.12,0.91
						c-1.91-0.21-16.05-1.1-7.91-1.48c2.29,0.09,5.32,0.12,9.7-0.21c0.05,0.48,4.33,0.31,9.69,0.18l-0.35,0.65
						c5.79-0.3,5.33-0.62,8.73-0.99c6.46-0.09,7.81,0.37,9.34,0.75c10.34-0.17-7.16-0.61,5.07-1.05c8.6,0.01,14.62-0.42,24.88-1.07
						c6.01,0.07-1.04,0.42,1.12,0.55l5.31-0.64c1.3-0.02,0.89,0.15,0.67,0.23c4.48-0.3,0.35-0.65,7.41-0.98
						c1.89-0.75,14.5,0.74,23.22-0.1c2.15,0.17-1.04,0.4-0.38,0.64c11.97-0.57,10.26-0.43,20.1-1.06l8.37,0.55
						c-6.14-0.59,1.73-1.05,8.64-1.29c-2.18-0.31-4.04-0.56-5.29-0.68c3.67-0.03,7.35-0.02,11.02,0.01
						c1.33,0.16,0.21,0.33-1.61,0.53c0.75-0.03,1.47-0.05,2.02-0.07c3.92,0.41,1.87,0.68-0.96,0.93c-1.33-0.18-2.66-0.36-3.95-0.54
						c-2.73,0.3-5.28,0.66-4.72,1.05c0.72-0.06,2.09-0.08,3.61-0.06c-0.71,0.08-1.17,0.16-0.84,0.24c0.37,0.08,1.52-0.03,3.32-0.13
						l2.47,0.81l0.62-0.26c4.78,0.35,9.55,0.73,14.31,1.19c5.14-0.02,9.96-0.11,15.54,0.03c5.57,0.15,11.9,0.48,20.01,1.54
						c-4.09-0.07-0.98,0.71-1.29,1.3c-4.31-1.29-12.54-1.41-20.93-2.29c4.38,0.46,3.38,0.69,2.26,0.67
						c5.01,0.29,10.01,0.66,15.01,1.12c-0.4,0.46,3.12,0.79,6.96,1.6c-1.39-0.72,1.41-0.47,5.31,0.11c3.9,0.6,8.88,1.57,11.9,2.09
						c0.29,0.44-1.19,0.37-8.5-1.1c3.97,1.12,6.62,1.39,9.27,1.64c2.64,0.28,5.28,0.55,9.11,1.89c-1.76-0.46-2.71-0.73-3.45-0.74
						c2.1,0.36,5.66,1.27,8.35,2.12c2.7,0.83,4.55,1.58,3.34,1.35c-0.58-0.18-1.15-0.36-1.74-0.52c5.77,1.75,14.44,4.77,21.62,8.01
						c7.22,3.15,12.94,6.47,13.93,6.58c0.04,0.15-1.89,0.05-2.59-0.18c3.3,1.41,6.53,3,9.72,4.74c3.17,1.77,6.25,3.73,9.26,5.87
						c-0.94-0.4-0.38,1-0.55,1.65c-0.17,0.66-0.97,0.5-4.83-2.58c2.06,1.95,4.66,4.28,8.81,8.57c-1.17-1.52-2.54-4.25-0.64-2.37
						c2.18,2.98,2.87,4.03,3.72,5.25c0.41,0.61,0.9,1.23,1.51,2.23c0.63,0.99,1.47,2.28,2.52,4.25c-0.73-1.25-0.42-1.37,0.39-0.68
						c0.84,0.67,2.1,2.21,3.26,4.23c-0.51-0.54-0.78,0.88-1.74-0.49c2.23,3.08,4.3,6.33,6.1,9.75c-0.66-1.28-0.93-1.3-0.94-0.7
						c-0.01,0.61,0.24,1.83,0.52,3.08c-0.13-0.58,0.82,1.69,1.7,4.55c0.49,1.41,0.86,3,1.27,4.38c0.37,1.39,0.65,2.63,0.86,3.36
						c-0.29-1.59-0.57-3.18-0.95-4.75c0.45,1.55,0.77,2.92,1.09,4.14c0.34,1.21,0.61,2.28,0.86,3.25c0.54,1.94,0.97,3.49,1.4,5.04
						c0.78,3.11,1.68,6.28,1.6,12.8c-0.1-0.79-0.49-1.76-0.83-1.7c-0.35,0.05-0.62,1.12-0.83,4.36c0.24,1.5,0.72,4.85,0.78,9.33
						c0.05,4.47-0.47,10.07-2.02,15.72l-1.02,2.03c-0.81,2.87-1.77,5.7-2.81,8.51c0.7-2.73,2-7.92,2.91-13.48
						c0.94-5.56,1.39-11.49,1.49-15.64c-0.4,2.38-0.58,2.69-0.74,3.3c-0.19,0.61-0.26,1.54-1,5.07c-0.41,1.21-0.32,0.22-0.09-1.32
						c0.27-1.54,0.5-3.66,0.68-4.7c-0.87,5.48-2.24,10.89-4.03,16.15c0.44-0.25-0.38,2.85-1.4,5.92c-0.52,1.53-1.08,3.05-1.44,4.18
						c-0.4,1.11-0.61,1.82-0.41,1.73c2.28-5.69,4.18-11.51,5.48-17.44c0.41-0.28,0.26,2.41-0.72,6.58
						c-0.96,4.16-2.85,9.78-5.57,15.19c-1.59,2.64-0.06-2.58-0.39-2.45c-0.11,0.38-0.46,1.21-0.92,2.27
						c-0.24,0.53-0.5,1.12-0.77,1.73c-0.3,0.6-0.61,1.23-0.92,1.86c-1.22,2.51-2.63,4.87-2.95,5.32c0.72-1.55,1.5-3.06,2.17-4.62
						c-1.69,2.87-2.87,5.33-4.24,7.89c-1.37,2.56-2.95,5.21-5.51,8.33c-0.84,1.11-2.19,2.69-3.4,4.02c-1.2,1.33-2.19,2.46-2.17,2.77
						c3.33-3.14,5.8-2.48,4.41,0.32c-0.16,0.19-0.84,1-1.79,2.14c-0.99,1.11-2.24,2.58-3.59,4.04c-2.69,2.95-5.67,5.98-6.89,7.05
						c-1.77,1.52-0.87-0.01,0.07-1.59c0.92-1.61,1.9-3.26,0.43-1.95c0.04,0.25-1.46,2.32-2.12,3.15c-2.09,2.07,0.42-1.25-3.83,3.49
						c-0.18,1.29-9.01,9.32-1.64,2.6c-2.1,2.31-3.27,3.49-4.58,4.71c-1.3,1.24-2.72,2.55-5.35,5.1c2-1.3-3.71,5.66-8.31,9.97
						c0.16-0.37-1.04,0.39-1.62,0.77c-4.85,4.21-8.68,7.32-12.49,10.29c-3.8,2.98-7.54,5.84-12.31,9.45
						c-0.97,0.55-5.72,3.84-3.92,2.13c-1.31,1.11-2.43,2.26-5.41,4.44c-6.12,3.72,6.59-4.92,1.78-2.28
						c-0.07,0.3-1.92,1.81-4.27,3.65c-2.38,1.81-5.23,3.98-7.32,5.57c1.7-0.39,10.01-6.89,14.07-10.24
						c0.52,0.65-6.29,6.88-16.44,14.29c-8.13,5.77-3.89,1.96-5.25,3.04c-7.82,5.13-11,7.56-13.86,9.76
						c-2.87,2.18-5.43,4.12-12.23,7.91c-5.55,2.74-0.79-0.77-2.16-0.39c6.82-4.38,10.77-6.25,15.41-9.21l-5.86,3.4
						c2.09-1.52,6.59-4.53,9.15-6.01c-2.3,1.2-8.95,5.45-16.69,10.14c-7.73,4.71-16.55,9.85-22.93,13.22
						c-2.14,1.42-5.9,3.75-3.97,2.91l3.94-2.31c3.87-1.69-7.18,4.75-2.05,2.08c-5.18,3.28-10.96,7.04-18.68,10.91l-1.72,0.22
						c0.25,0.08,5.14-2.35,7.18-3.67c-3.03,1.96-12.03,5.54-15.15,8.07l5.55-2.45c-5.29,3.16-11.74,7.26-18.65,10.55
						c3.38-1.03,1.54-0.86,6.7-2.71c-2.3,0.69,2.06-1.54,6.08-3.64c4.02-2.11,7.71-4.06,4.15-2.7c5.31-1.89,8.69-4.22,15.42-7.12
						c-0.3-0.07-2.45,0.91,3.23-2.11c0.23-0.19,0.79-0.59,1.15-0.84c0.17-0.09,0.24-0.12,0.39-0.2c-0.12,0.05-0.2,0.1-0.32,0.15
						c0.23-0.16,0.25-0.18-0.12,0.06c-1.38,0.67-2.52,1.18-3.01,1.32c2.57-1.94,11.48-6.93,14.35-8.88
						c3.35-1.81-1.27,0.99,0.65,0.15l4.28-2.9c0.67,0.15,9.11-4.5,1.5,0.29l6.97-4.1c4.22-2.22,9.87-5.56,13.19-7.87
						c3.29-1.94,7.89-5.57,5.27-3.49c3.52-2.35,7.02-4.73,10.5-7.14l0.16,0.03c10.48-6.89,20.88-15.11,32.75-23.18
						c3.27-2.68,6.64-5.44,12.18-9.83l1.31-0.58c1.02-0.9,2.33-1.98,3.74-3.13c1.4-1.16,2.9-2.41,4.32-3.58
						c2.82-2.39,5.3-4.58,6.02-5.53c2.53-1.57,7.41-6.04,12.36-11.11c4.96-5.06,9.92-10.76,13.1-14.37l-0.15-0.6
						c4.29-5.02,8.16-10.06,12.67-16.93l-0.65,0.16c1.85-3.01,4.43-6.74,7.11-11.04c2.66-4.31,5.41-9.2,7.65-14.36
						c-0.16,0.77-1.35,3.36-2.36,5.11c3.42-5.8,5.98-12.52,7.7-19.26c1.76-6.75,2.77-13.47,3.62-19.55c0.11-3.06,0.2-5.26,0.35-7.41
						c0.01,0.28,0.02,0.54,0.02,0.76c0.02-0.31,0-0.78,0-1.26c0.04-1.35,0.18-2.75,0.13-4.26c-0.01,1.29-0.12,2.52-0.14,3.59
						c-0.01-1.18-0.04-2.67-0.19-4.29c-0.09-1.63-0.31-3.39-0.56-5.12c0.1-0.51,0.23-1.03,0.3-1.54c-0.05-0.28-0.08-0.51-0.13-0.8
						c-0.33-3.45-0.63-2.7-0.72-0.84c-0.31-1.74-0.74-3.3-1.09-4.5c0.14-1.45-0.48-3.66-1.13-5.99c-0.36-1.15-0.72-2.34-1.03-3.48
						c-0.34-1.13-0.6-2.21-0.71-3.18c-0.27-0.53-0.85-1.81-1.54-3.46c-0.33-0.83-0.79-1.72-1.21-2.67
						c-0.22-0.47-0.45-0.95-0.67-1.44c-0.25-0.48-0.5-0.96-0.75-1.44c-0.97-1.94-2.1-3.77-3.03-5.22c-0.99-1.42-1.78-2.45-2.2-2.73
						c0.02-0.15-0.46-1.06,0.52,0.54c-1.97-3.34-4.16-6.56-6.56-9.09c-0.17-0.57-0.4-1.1-0.6-1.65c-1.03-0.99-2.06-1.96-3.15-2.88
						c-1.05-0.95-2.16-1.83-3.27-2.71c-1.71-1.91-3.01-3.19-3.3-3.68c-0.3-0.47,0.38-0.13,2.44,1.42c-4.86-3.87-6.95-5.23-8.82-6.53
						c-1.89-1.25-3.57-2.44-8.21-4.82l0.64-0.07c-3.2-1.96-8.72-4.24-10.61-5.48c-3.57-2.18-13.05-6.38-24.5-9.73
						c-11.42-3.44-24.7-6.07-35.19-7.96c1.95,0.89-0.47,0.36-3.51-0.22c-3.04-0.6-6.71-1.23-7.18-0.84c-1.2-0.42-4.13-0.9-0.67-0.75
						c-10.82-0.95-16.22-2.06-23.75-1.81c-1.22-0.36,2.34-0.25,1.25-0.49c-0.87,0-3.46,0.02-4.58-0.22
						c-1.09-0.23,1.6-0.13,3.33-0.14c-11.08-0.63-12.24,0.25-13.08,0.99c-5.58-0.61-8.39-0.65-12.45-0.23
						c-1.94-0.31-5.19-0.67,1.68-0.59c-1.93-0.07-7.84-0.32-13.31-0.39c-5.47-0.08-10.51-0.01-10.7,0.31
						c-1.21-0.16-5.4-0.05-6.42,0.03c-8.67,0.01-9.43-0.03-17.94,0.15l2.36,0.07c-3.35,0.82-7.07,0.28-13.93,0.52l0.19-0.08
						c-15.74-0.19-6.78,0.42-22.31,0.19l0.86,0.46c-1.42,1.07-13.75-0.23-22.74,0.4l3.25,0.19c-4.91,0.49-13.77-1.06-18.7-1.09
						c-1.08-0.07,1.69-0.17,3.19-0.28c-12.92-0.36-1.66,0.67-11.28,0.98c-1.78-0.32,2.27-0.89-4.2-0.87
						c-3.22-0.21-18.76,1.25-27.57,0.37c1.94,0.3,3.86,0.6-0.6,0.7c-6.86-0.03-18.41-1.62-24.6-1.35c-0.86-0.14-1.18-0.23-1.21-0.3
						c-2.6-0.11-6.83-0.41-10.78-0.8c-3.95-0.38-7.64-0.8-9.22-0.87c-2.23-1.21-10.19-2.45-17.3-4.55c-3.55-1.03-6.9-2.24-9.23-3.39
						c-1.17-0.56-2.1-1.1-2.71-1.51c-0.6-0.44-0.89-0.75-0.78-0.91c-4.52-2.52-8.61-5.78-11.64-9.84l0.36,0.23
						c-2.87-3.9-3.98-7.01-4.82-9.36c-0.82-2.37-1.19-4.08-1.59-5.79c-0.05-2.3,0.21-0.64,0.29-0.46c-0.2-3.6,0.04-6.42,0.37-8.77
						c0.3-2.35,0.67-4.26,1.04-6.09c0.16-0.92,0.4-1.81,0.59-2.74c0.19-0.93,0.44-1.88,0.7-2.91c0.53-2.06,1.04-4.45,1.97-7.45
						l0.9-1.05c0.11-0.41,0.31-1.03,0.6-1.83c0.32-0.79,0.73-1.74,1.21-2.84c0.5-1.09,0.99-2.36,1.67-3.68
						c0.66-1.33,1.38-2.76,2.14-4.28c3.13-6.01,7.41-12.94,11.49-18.98c-0.04,0.15-0.14,0.45-0.76,1.43
						c4.47-6.87,11.2-14.11,17.49-19.81c6.27-5.76,12.01-10.09,13.85-12.65c2.82-2.28,5.67-4.53,8.62-6.66
						c-11.69,7.9,1.27-1.87-3.69,1.18c4.52-3.29,12.39-7.35,6.64-3.65l-0.95,0.49c-0.79,1.08,2.92-1.25,6.94-3.59
						c4-2.37,8.35-4.66,8.33-4.3c6.1-3.3,12.3-6.31,18.57-9.06c6.28-2.72,12.61-5.22,18.95-7.53c12.7-4.57,25.42-8.42,37.98-11.88
						l-3.09,0.1c2.92-0.81,5.85-1.61,8.79-2.37c2.35-0.45,3.24-0.27-3.03,1.37c1.7-0.24,4.31-1.03,6.5-1.77
						c2.21-0.73,4-1.42,4.07-1.52c6.2-1.42,5.05-0.88,2.82-0.16c-2.23,0.75-5.52,1.74-3.64,1.27l5.11-1.35l-1.18,0.2
						c4.1-1.3,4.38-1.74,11.99-3.47c4.84-0.97,2.57-0.13,4.47-0.53c0,0.03,0.16,0.01,0.61-0.08c0.44-0.09,1.17-0.27,2.31-0.55
						c3.74-0.81,7.47-1.61,11.22-2.37l-4.61,0.39c4.91-1.35,10.57-2.2,5.25-1.76c3.9-0.33,14.41-2.38,24.56-4.32
						c10.15-1.95,19.93-3.82,22.31-4.1c6.94-1.7,13.87-2.94,22.46-4.45c-2.16,0.27-3.55-0.14,3.87-1.4
						c-2.47,1.81,13.66-1.89,19.82-2.08c-2.73,0.18,2.52-0.83,7.39-1.84c4.86-1,9.33-2,5.06-1.62c6.19-1.1,0.47,0.42,5.21-0.19
						c14.56-3.44,32.39-6.33,50.26-11.39c0.23-0.24-2.83,0.3,0.93-0.98c3.21-0.61,6.44-1.21,9.65-1.89c3.5-1.13,2.92-1.98,9.47-3.47
						c-0.95,0.15-2.36,0.38-0.04-0.44c17.37-5.29,34.59-12.69,50.67-22.25c16.05-9.55,30.97-21.57,42.16-36.84
						c-1.59,2.01-1.93,2.29-1.56,1.69c0.18-0.3,0.53-0.82,0.97-1.47c0.43-0.66,0.91-1.47,1.43-2.29c-1.41,2.1-0.34-0.28-0.8,0.01
						c2.97-4.28,5.56-8.87,7.6-13.74c0.17-1.47,1.59-5.45,2.37-9.47c0.85-3.99,1.08-7.96,0.77-8.79c-0.03,1.67-0.15,3.33-0.35,4.98
						c0.03-3.34-0.6-1.04-1.53,1.8c-0.9,2.86-2.37,6.2-2.71,5.61c-0.55,3.54-2.47,7.93-5.12,12.47c-2.64,4.57-6.02,9.28-9.26,14.2
						c-1.76,1.9,1.13-1.92,0.1-0.98c-0.38,0.64-0.8,1.31-1.28,2.02c-0.52,0.68-1.11,1.41-1.79,2.21c-0.7,0.79-1.41,1.71-2.37,2.63
						c-0.95,0.92-2,1.95-3.2,3.11l0.46-0.61c-0.8,0.85-1.65,1.6-2.45,2.34c-0.81,0.74-1.59,1.45-2.35,2.14
						c-1.53,1.37-3.07,2.54-4.5,3.72c-1.42,1.2-2.91,2.2-4.32,3.24c-1.43,1.03-2.81,2.06-4.3,2.98c-1.47,0.95-2.95,1.9-4.49,2.89
						c-1.58,0.92-3.22,1.88-4.95,2.89c-0.87,0.5-1.74,1.04-2.69,1.54c-0.94,0.5-1.91,1.01-2.92,1.54c-2.02,1.06-4.14,2.24-6.54,3.34
						l1.62-0.27c-4.1,1.97-5.02,2.26-6.97,3.1c-4.36,2.97,11.44-5.64,7.55-2.82c-1.46,0.46-3.99,1.58-7.02,3.01
						c-3.07,1.36-6.67,2.97-10.24,4.51c-3.62,1.43-7.15,2.92-10.09,3.93c-2.95,0.99-5.25,1.68-6.3,1.77
						c-6.58,2.37,2.13-0.13-4.49,2.15l-1.86,0.3l-1.56,0.91c-4.39,1.37-6.7,1.74-6.94,1.53c1.08-0.28,2.99-1.04,4.12-1.42
						c-5.73,1.58-16.03,4.95-18.05,5.34c2.19-0.51,4.36-1.06,6.54-1.62c-18.31,5.59-41.31,10.1-59.4,14.22l1.43-0.05
						c-13.84,3.09-11.19,1.92-26.46,4.93l0.55-0.15c-3.02,0.78-7.1,1.64-11.29,2.37c3.82-0.96-7.37,0.82-2.35-0.39
						c-15.05,3.18-7.42,1.7-17.27,4.33l-2.37,0.06c-3.34,0.96-3.6,1.17-11.23,2.69c6.21-1.48-4.99,0.36,1.97-1.37
						c-16.21,2.2-23.66,5.35-31.24,5.69c-3.57,1.25-0.08,0.69,3.79-0.06c3.88-0.73,8.14-1.64,6.1-1.12
						c3.51-0.35-5.93,1.94-10.96,2.88c-5.11,1.04-8.96,0.48-21.78,3.38c1.28-0.28,1.35-0.38,2.62-0.66
						c-4.86,0.82-9.32,2.48-15.28,3.5c-3.14,1.39-7.61,1.87-8.36,2.87c3.87-1.07,7.76-2.08,11.65-3.09
						c-6.59,1.82-12.58,4.23-23.54,6.79c0.8-0.4,3.97-1.49,6.17-2.19c-3.25,0.61-6.07,1.82-9.43,2.51c0.36-0.5,3.87-1.57,8.18-2.74
						c4.3-1.19,9.39-2.48,12.87-3.65c-1.76,0.25-5.08,1.26-7.55,1.97c-2.46,0.72-4.06,1.17-2.39,0.28
						c-4.84,2.4-12.57,3.24-20.86,6.64l0.42-0.63c-1.32,0.5-4.06,1.54-6.53,2.34c1.43-0.69,2.87-1.33,4.3-1.99
						c-6.74,2.63-13.42,3.81-19.86,6.46c3.41-1.26,5.34-1.86,6.38-2.16c1.04-0.3,1.21-0.26,1.13-0.14
						c-0.16,0.25-1.29,0.89,1.66,0.06c-2.09,0.8-3.81,1.43-5.27,1.94c-1.45,0.53-2.63,0.94-3.64,1.26
						c-2.02,0.64-3.35,0.94-4.74,1.29c-2.78,0.69-5.88,1.32-15.09,5.39c2.46-1.18,9.55-3.65,5.69-1.85
						c-1.8,0.65-3.85,1.49-5.76,2.21c-1.91,0.71-3.64,1.38-4.76,1.76c-12.06,5.69,2.05-0.43-2.97,2.21
						c-4.33,1.44-5.81,3.02-10.89,5.88l-0.26-0.41c-6.77,3.46-7.49,4.22-8.08,4.85c-0.29,0.31-0.54,0.6-1.47,1.22
						c-0.92,0.62-2.54,1.55-5.46,3.31c1.51-1.22,3.02-2.44,4.58-3.59c-2.04,1.23-4,2.58-5.99,3.89l0.95-1.25
						c-6.34,4.53-8.37,5.82-14.57,10.29c0.8-0.41,0.74-0.08-0.19,0.86c-0.93,0.94-2.73,2.48-5.29,4.68
						c-1.85,1.36-1.44,0.86-1.46,0.8c-0.01-0.03-0.14,0.04-0.72,0.51c-0.57,0.48-1.56,1.39-3.32,3.01c0.7-0.83,1.43-1.72,2.4-2.71
						c0.97-0.99,2.27-2,4-3.17c0.23-0.39,1.44-1.61,1.7-1.99c-4.09,2.86-9.61,8.02-12.03,10.53c0.98-0.92,2.12-2.04,2.79-2.52
						c-1.63,1.65-3.18,3.39-4.77,5.08c-1.51,1.77-3.04,3.51-4.5,5.3c-1.56,1.54-0.56,0.11,0.5-1.26c-0.94,1.05-1.64,2.02-2.49,3.09
						c-0.84,1.07-1.8,2.25-3.05,3.9c0.38-1.07-0.18-1.19,3.56-5.76c-1.39,1.74-2.83,3.43-4.12,5.24c-1.33,1.78-2.66,3.56-3.87,5.42
						c-0.33,0.31-1.42,1.63-2.33,2.69c-0.85,1.09-1.52,1.92-1.11,1.15c-2.16,3.02-4.41,6.99-6.52,11.34
						c-0.53,1.09-1.06,2.2-1.6,3.31c-0.53,1.12-1,2.28-1.52,3.41c-0.5,1.15-1.05,2.27-1.53,3.42c-0.48,1.15-0.97,2.29-1.47,3.4
						c-0.1,0.51-0.5,1.45-1.12,3.44c-1.64,4.3-3.08,8.35-4.34,12.78c-1.18,4.45-2.13,9.32-1.84,15c-0.26,2.14-0.29,4.33-0.21,6.55
						c0.96,4.49,0.74,2.21,0.68,0.74c-0.04-0.74,0.02-1.29,0.21-0.74c0.26,0.54,0.49,2.22,1.73,5.73c0.91,2.47,1.66,3.86,2.05,4.7
						c0.38,0.84,0.45,1.13,0.41,1.23c-0.1,0.22-0.72-0.29,0.2,1.37c1.59,2.17,4.1,4.88,7.32,7.44c3.24,2.54,7.14,4.99,11.27,7.25
						C339.87,589,337.77,587.7,335.28,586.11z M437.47,602c-2,0.12-6,0.43-7.47,0.14C432.29,601.59,434.05,601.86,437.47,602z
						 M594.31,599.75c-1.49,0.08-3.78-0.13-6.36-0.42C589.83,599.37,591.96,599.49,594.31,599.75z M605.06,871.4
						c0.07-0.05,0.12-0.09,0.17-0.13C609.15,869.1,607.76,869.86,605.06,871.4z M596.99,876.01c-0.77,0.53-0.68,0.56-0.31,0.42
						c0.5-0.43,2.29-1.5,4.34-2.7C600.39,873.95,599.32,874.51,596.99,876.01z M511.86,413.87l-1.78,0.27
						C514.01,413.11,512.92,413.49,511.86,413.87z"/>
					<path class="st0" d="M576.54,599.67c-0.56-0.1-0.72-0.19-0.85-0.28C574.9,599.45,574.89,599.54,576.54,599.67z"/>
					<path class="st0" d="M326.25,525.05l0.13-0.29c0.04-0.17,0.05-0.27,0.04-0.33L326.25,525.05z"/>
					<path class="st0" d="M707.59,785.43c1.32-1.36,2.07-2.11,2.6-2.58C710.15,782.69,709.56,783.31,707.59,785.43z"/>
					<path class="st0" d="M554.4,900.71l5.2-2.9c-2.53,1.38-3.48,1.77-4.81,2.37C554.96,900.22,556.04,899.84,554.4,900.71z"/>
					<path class="st0" d="M506.93,921.11c-0.76,0.43-1.66,0.79-2.41,1.21l0.31,0.1C508.17,920.83,510.42,919.54,506.93,921.11z"/>
					<path class="st0" d="M548.78,901.85c-0.61-0.14-3.84,1.7-7.52,3.66c0.22-0.11,0.43-0.22,0.66-0.34
						C541.08,906.24,544.95,904.06,548.78,901.85z"/>
					<path class="st0" d="M540.41,905.96c-1.13,0.61-2.3,1.2-3.43,1.75C536.65,908.14,538.4,907.06,540.41,905.96z"/>
					<path class="st0" d="M586.95,882.18c-1.77,0.89-0.82,1.07-1.87,1.48C583.43,885.22,596.18,876.53,586.95,882.18z"/>
					<polygon class="st0" points="545.18,902.21 546.73,901.97 548.61,900.54 					"/>
					<path class="st0" d="M574.29,887.02l-5.88,3.09c0.13,0.03-0.59,0.47-1.48,1.01C570.53,889.17,574.5,887.08,574.29,887.02z"/>
					<path class="st0" d="M566.92,891.12c-1.88,1.02-3.66,1.98-4.66,2.62C563.27,893.18,565.45,892,566.92,891.12z"/>
					<polygon class="st0" points="553.16,897.87 554.94,897.05 559.1,894.88 					"/>
					<path class="st0" d="M635.24,849.78l5.89-4.24c0.51-0.56-1.17,0.48-3.35,2.08C636.42,848.7,634.23,850.27,635.24,849.78z"/>
					<path class="st0" d="M616.18,860.68c1.71-0.96,1.88-0.94,2.9-1.4l-0.15-0.64L616.18,860.68z"/>
					<path class="st0" d="M633.74,848.97c0.51-0.54,8.38-6.35,0.84-1.13C634.08,848.4,628.16,852.59,633.74,848.97z"/>
					<polygon class="st0" points="716.12,778.04 714.96,779.47 715.91,779.91 					"/>
					<path class="st0" d="M745.12,690.33c0.33,4.15,0.47,4.63,0.64,5.02c0.09,0.19,0.17,0.36,0.24,0.95
						c0.07,0.59,0.14,1.61,0.07,3.5c0.13,0.98,0.18-0.56,0.21-2.11c-0.03-1.54-0.06-3.08,0.1-2.08
						C745.79,690.58,745.44,687.96,745.12,690.33z"/>
					<path class="st0" d="M746.37,695.62c0.09,0.81,0.19,1.67,0.29,2.58C746.54,696.73,746.43,696.04,746.37,695.62z"/>
					<path class="st0" d="M810.46,286.72c0.43-1.87,0.78-3.77,1.02-5.69c-0.2,1.24-0.52,2.45-0.79,3.66L810.46,286.72z"/>
					<path class="st0" d="M810.72,275.68c0.22-0.45,0.4-0.92,0.6-1.39c-0.26-1.18-0.54-2.27-0.96-3.53
						C810.67,272.21,810.85,274.67,810.72,275.68z"/>
					<path class="st0" d="M452.87,603.13l0.42-0.16c-0.86-0.16-2.16-0.14-4.75-0.13L452.87,603.13z"/>
					<polygon class="st0" points="377.59,599.99 378.88,600.18 376.54,599.27 					"/>
					<path class="st0" d="M320.87,571.15c1.1,2.68,2.99,5.54,4.78,7.78c-1.99-2.42-3.08-4.69-3.72-6.15
						C321.29,571.32,321.06,570.64,320.87,571.15z"/>
				</g>
			</g>
		</g>
	</g>
</g>
</svg>
