<svg xmlns="http://www.w3.org/2000/svg" width="222.757" height="269.855" viewBox="0 0 222.757 269.855">
  <g id="Location_travel" data-name="Location travel" transform="translate(-147.618 -73.691)">
    <path id="Path_13" data-name="Path 13" d="M826.648,96.555q-.531,1.466-1.058,2.928c-.093.09-.226.159-.275.27a14.6,14.6,0,0,1-3.987,5.39c-4.137,3.323-8.254,6.665-12.421,9.95-3.72,2.934-7.492,5.8-11.24,8.7-.107-.041-.218-.078-.325-.119a.993.993,0,0,0,.038-.328c-.841-3.682-1.722-7.355-2.528-11.046-1.073-4.9-2.125-9.805-3.12-14.72a38.253,38.253,0,0,1-.763-5.43A29.065,29.065,0,0,1,791.306,88q.826-2.279,1.65-4.555c.261-.38.542-.751.78-1.145a17.333,17.333,0,0,1,10.072-7.776,16.16,16.16,0,0,1,8.582-.444c.612.145,1.241.22,1.864.325l2.114.765c.064.084.107.209.191.244a16.4,16.4,0,0,1,6.387,4.761,17.7,17.7,0,0,1,4.131,13.673C826.973,94.751,826.79,95.65,826.648,96.555ZM811.772,84.543A7.838,7.838,0,0,0,801.778,89a7.932,7.932,0,0,0,4.25,10.043,7.847,7.847,0,0,0,10.429-4.5A7.7,7.7,0,0,0,811.772,84.543Z" transform="translate(-456.818)" fill="#474747"/>
    <path id="Path_14" data-name="Path 14" d="M193.273,780.865q.878,1.9,1.76,3.8a1.493,1.493,0,0,0-.009.519,19.637,19.637,0,0,1,1.29,8.927c-.809,7.092-1.58,14.189-2.45,21.272-.777,6.326-1.667,12.638-2.508,18.955-.142.064-.281.13-.423.194a1.342,1.342,0,0,0-.275-.351c-4.291-2.723-8.608-5.4-12.876-8.161q-8.5-5.5-16.92-11.116a51.216,51.216,0,0,1-5.871-4.471,39.336,39.336,0,0,1-3.61-4.285q-1.37-2.957-2.737-5.914c-.11-.612-.194-1.229-.339-1.832a23.336,23.336,0,0,1,2.264-16.969,21.746,21.746,0,0,1,7.782-8.55c.722-.444,1.395-.965,2.09-1.453l2.746-1.27c.139.02.3.1.412.052a22.08,22.08,0,0,1,10.611-1.5,23.806,23.806,0,0,1,16.9,9.159C191.876,778.833,192.555,779.865,193.273,780.865Zm-25.592,2.606c-5.291,2.186-7.541,8.8-5.332,13.722a10.677,10.677,0,0,0,13.571,5.578,10.558,10.558,0,0,0,5.712-14.172A10.359,10.359,0,0,0,167.682,783.472Z" transform="translate(0 -493.437)" fill="#474747"/>
    <g id="Group_9" data-name="Group 9" transform="translate(193.158 130.827)">
      <g id="Group_8" data-name="Group 8" transform="translate(0 0)">
        <g id="Group_7" data-name="Group 7">
          <g id="Group_6" data-name="Group 6">
            <g id="Group_5" data-name="Group 5">
              <path id="Path_15" data-name="Path 15" d="M305.192,1003.386c-.687.209-.406.246-.5.3C305.829,1003.3,305.151,1003.366,305.192,1003.386Z" transform="translate(-304.69 -790.965)" fill="#474747"/>
              <path id="Path_16" data-name="Path 16" d="M344.2,988.01l-.18.116,1.595-.7Z" transform="translate(-332.617 -779.648)" fill="#474747"/>
              <path id="Path_17" data-name="Path 17" d="M363.944,976.35c-1.047.177-3.728,1.435-5.6,2.038l-.319.067-.777.458C359.485,978.078,362.353,976.892,363.944,976.35Z" transform="translate(-342.011 -771.78)" fill="#474747"/>
              <path id="Path_18" data-name="Path 18" d="M396.667,970.231c-.368.055,1.16-.525-1.287.473.128-.038.165-.049.238-.07C395.841,970.549,396.148,970.431,396.667,970.231Z" transform="translate(-369.087 -767.351)" fill="#474747"/>
              <path id="Path_19" data-name="Path 19" d="M395.344,971.8c-1.081.426.734-.212,0,0Z" transform="translate(-368.81 -768.519)" fill="#474747"/>
              <path id="Path_20" data-name="Path 20" d="M409.955,964.512l-1.394.632c.316-.073,1.583-.568,1.128-.348C411.129,964.179,410.813,964.254,409.955,964.512Z" transform="translate(-378.445 -763.239)" fill="#474747"/>
              <path id="Path_21" data-name="Path 21" d="M416.045,962.63l-.725.325A2.861,2.861,0,0,0,416.045,962.63Z" transform="translate(-383.245 -762.038)" fill="#474747"/>
              <path id="Path_22" data-name="Path 22" d="M410.02,964.434l1.537-.684a1.264,1.264,0,0,0-.707.307C410.953,963.95,410.667,964.13,410.02,964.434Z" transform="translate(-379.482 -762.833)" fill="#474747"/>
              <path id="Path_23" data-name="Path 23" d="M401.343,967.22c-.815.275-1.859.652-.455.023C398.174,968.336,398.629,968.319,401.343,967.22Z" transform="translate(-371.704 -765.297)" fill="#474747"/>
              <path id="Path_24" data-name="Path 24" d="M377,974.98l-1.093.348-.9.415C375.452,975.537,377.087,975.015,377,974.98Z" transform="translate(-354.615 -770.807)" fill="#474747"/>
              <path id="Path_25" data-name="Path 25" d="M439.84,952.789c.07-.078-.519.09-.646.084l-1.023.484A14.52,14.52,0,0,1,439.84,952.789Z" transform="translate(-399.471 -755.036)" fill="#474747"/>
              <path id="Path_26" data-name="Path 26" d="M441.645,951.348l1.528-.728C441.782,951.2,441.538,951.339,441.645,951.348Z" transform="translate(-401.922 -753.51)" fill="#474747"/>
              <path id="Path_27" data-name="Path 27" d="M412.227,961.053l-2.517,1.18,3.012-1.383Z" transform="translate(-379.262 -760.774)" fill="#474747"/>
              <path id="Path_28" data-name="Path 28" d="M462.368,943.228l-.838.475,1.5-.823Z" transform="translate(-416.058 -748.014)" fill="#474747"/>
              <path id="Path_29" data-name="Path 29" d="M477.562,934.83c-.615.368.948-.267.284.087,1.058-.49,1.934-.968,2.719-1.4C479.716,933.946,478.788,934.358,477.562,934.83Z" transform="translate(-427.338 -741.368)" fill="#474747"/>
              <path id="Path_30" data-name="Path 30" d="M489.608,931.06c-.423.218-.855.455-1.328.713C488.732,931.544,489.173,931.312,489.608,931.06Z" transform="translate(-435.052 -739.621)" fill="#474747"/>
              <path id="Path_31" data-name="Path 31" d="M456.14,945.782a6.615,6.615,0,0,0,1.273-.412l-.661.151C456.566,945.6,456.355,945.692,456.14,945.782Z" transform="translate(-412.231 -749.782)" fill="#474747"/>
              <path id="Path_32" data-name="Path 32" d="M458.17,944.511l.023-.006,1.322-.565Z" transform="translate(-413.672 -748.767)" fill="#474747"/>
              <path id="Path_33" data-name="Path 33" d="M455.61,946.857c.058-.023.1-.044.154-.067A.329.329,0,0,0,455.61,946.857Z" transform="translate(-411.854 -750.791)" fill="#474747"/>
              <path id="Path_34" data-name="Path 34" d="M432.69,953.969c.893-.443,2.775-1.308.884-.635C432.948,953.685,434.029,953.3,432.69,953.969Z" transform="translate(-395.579 -755.262)" fill="#474747"/>
              <path id="Path_35" data-name="Path 35" d="M448.512,947.65l-1.664.678c.046.017.362-.067-.078.157Z" transform="translate(-405.577 -751.401)" fill="#474747"/>
              <path id="Path_36" data-name="Path 36" d="M453.571,946.33l-.792.383.618-.252Z" transform="translate(-409.845 -750.464)" fill="#474747"/>
              <path id="Path_37" data-name="Path 37" d="M481.375,932.324c.684-.368,1.455-.725,2.322-1.134-.945.406-1.916.835-2.835,1.25C480.749,932.535,480.375,932.782,481.375,932.324Z" transform="translate(-429.669 -739.714)" fill="#474747"/>
              <path id="Path_38" data-name="Path 38" d="M470.948,940.185c.049-.023.11-.055.154-.075C471,940.145,470.922,940.174,470.948,940.185Z" transform="translate(-422.741 -746.047)" fill="#474747"/>
              <path id="Path_39" data-name="Path 39" d="M520.068,917.27c-.049.018-.1.029-.145.047-.009.012-.012.02-.023.035Z" transform="translate(-457.505 -729.829)" fill="#474747"/>
              <path id="Path_40" data-name="Path 40" d="M476.991,935.479a13.093,13.093,0,0,0-1.511.725c.522-.246,1.079-.5,1.676-.774C477.208,935.386,477.214,935.372,476.991,935.479Z" transform="translate(-425.963 -742.701)" fill="#474747"/>
              <path id="Path_41" data-name="Path 41" d="M497.971,927.05c-.377.148-.8.322-1.241.5A9.844,9.844,0,0,0,497.971,927.05Z" transform="translate(-441.052 -736.774)" fill="#474747"/>
              <path id="Path_42" data-name="Path 42" d="M472.1,939.815c-.035.017-.067.032-.1.052C472.244,939.789,472.209,939.792,472.1,939.815Z" transform="translate(-423.492 -745.828)" fill="#474747"/>
              <path id="Path_43" data-name="Path 43" d="M471.742,938.664c.357-.177.629-.333.9-.484-.426.2-.818.389-1.157.56C471.583,938.708,471.675,938.682,471.742,938.664Z" transform="translate(-423.13 -744.677)" fill="#474747"/>
              <path id="Path_44" data-name="Path 44" d="M517.881,908.425a16.152,16.152,0,0,1-3.47,1.812c-1.513.826-.336.678,1.11.209.026-.07.006-.107,1.569-.954-.583.223-3.6,1.595-2.3.849a19.05,19.05,0,0,1,2.8-1.261c-.931.3,2.583-1.519,2.03-1.482l-1.809.989C517.762,908.579,518.405,908.2,517.881,908.425Z" transform="translate(-453.105 -722.962)" fill="#474747"/>
              <path id="Path_45" data-name="Path 45" d="M507.852,918.974l-.652.328c.76-.342,1.319-.554,2.346-.951a6.772,6.772,0,0,0,1.337-.8l-3.247,1.545Z" transform="translate(-448.487 -730.028)" fill="#474747"/>
              <path id="Path_46" data-name="Path 46" d="M492.761,924.992c.464-.354,2.029-1.145,1-.812-1.937.916-1.316.728-2.456,1.316,3.125-1.479-.873.481,1.426-.5-.609.3-1.16.568-1.682.815l1.65-.7c-.029.011-.052.017-.075.026l-.015.006,0,0c-.142.049-.191.061-.035,0l.064-.032a.406.406,0,0,1,.119-.11c.919-.4.157-.038-.122.11-.009.012-.029.026-.029.035l.012,0,3.108-1.534C495.06,923.893,494.231,924.29,492.761,924.992Z" transform="translate(-437.019 -734.324)" fill="#474747"/>
              <path id="Path_47" data-name="Path 47" d="M441.26,950.364c.1-.032.1-.02.113-.017C441.573,950.248,441.646,950.207,441.26,950.364Z" transform="translate(-401.665 -753.254)" fill="#474747"/>
              <path id="Path_48" data-name="Path 48" d="M440.852,947.987a8.752,8.752,0,0,1-1.157.548c-.67.241-.02-.055-.07-.081-.441.22-1.557.751-.107.209l.22-.11a26.482,26.482,0,0,1,2.792-.948A9.9,9.9,0,0,0,440.852,947.987Z" transform="translate(-399.917 -751.358)" fill="#474747"/>
              <path id="Path_49" data-name="Path 49" d="M471.77,935.642l2.606-1.232-1.383.5.1.029C471.579,935.587,471.935,935.515,471.77,935.642Z" transform="translate(-423.329 -742)" fill="#474747"/>
              <path id="Path_50" data-name="Path 50" d="M520.9,915.455l-.287.287,1.415-.9Z" transform="translate(-458.009 -728.104)" fill="#474747"/>
              <path id="Path_51" data-name="Path 51" d="M532.992,910.332l-.073.165.852-.507Z" transform="translate(-466.75 -724.66)" fill="#474747"/>
              <path id="Path_52" data-name="Path 52" d="M382.562,600.041l-.852-.061C382.113,600.018,382.374,600.029,382.562,600.041Z" transform="translate(-359.38 -504.53)" fill="#474747"/>
              <path id="Path_53" data-name="Path 53" d="M405.545,601.6l.154-.049C405.412,601.567,405.3,601.585,405.545,601.6Z" transform="translate(-376.208 -505.645)" fill="#474747"/>
              <path id="Path_54" data-name="Path 54" d="M750.411,690.2a7.744,7.744,0,0,0-.1-2.54l-.067.4c.069.438.1.829.136,1.18S750.408,689.906,750.411,690.2Z" transform="translate(-621.063 -566.777)" fill="#474747"/>
              <path id="Path_55" data-name="Path 55" d="M579.18,598.071c.116.017.238.032.359.049.3-.032.583-.064.838-.09Z" transform="translate(-499.598 -503.146)" fill="#474747"/>
              <path id="Path_56" data-name="Path 56" d="M572.161,599.579l-1.621-.119C570.905,599.492,571.424,599.535,572.161,599.579Z" transform="translate(-493.463 -504.161)" fill="#474747"/>
              <path id="Path_57" data-name="Path 57" d="M326.183,522.013l.267-.983C325.847,522.494,326.175,521.874,326.183,522.013Z" transform="translate(-319.883 -448.47)" fill="#474747"/>
              <path id="Path_58" data-name="Path 58" d="M647.24,840.048c.9-.583,1.6-1.067,2.2-1.508A16.246,16.246,0,0,0,647.24,840.048Z" transform="translate(-547.926 -673.925)" fill="#474747"/>
              <path id="Path_59" data-name="Path 59" d="M391.58,596.326c-.513-.017-.736-.012-.722.017C391.389,596.364,391.688,596.364,391.58,596.326Z" transform="translate(-365.875 -501.929)" fill="#474747"/>
              <path id="Path_60" data-name="Path 60" d="M657.3,832.11c-.154.107-.307.214-.464.322-.612.487-1.224.983-2,1.539A19.083,19.083,0,0,0,657.3,832.11Z" transform="translate(-553.322 -669.359)" fill="#474747"/>
              <path id="Path_61" data-name="Path 61" d="M701.46,369.122l.264-.07C701.744,369.029,701.628,369.064,701.46,369.122Z" transform="translate(-586.426 -340.549)" fill="#474747"/>
              <path id="Path_62" data-name="Path 62" d="M801.019,306.1c-.084.157-.194.365-.316.591s-.281.461-.423.7c.075-.11.171-.261.3-.467S800.84,306.442,801.019,306.1Z" transform="translate(-656.595 -295.854)" fill="#474747"/>
              <path id="Path_63" data-name="Path 63" d="M578.459,886.93c-.69.4-.1.075,0,0Z" transform="translate(-498.851 -708.286)" fill="#474747"/>
              <path id="Path_64" data-name="Path 64" d="M566.76,891.4c.142-.093.246-.171.249-.206A1.061,1.061,0,0,1,566.76,891.4Z" transform="translate(-490.779 -711.311)" fill="#474747"/>
              <path id="Path_65" data-name="Path 65" d="M682.517,812.516c.017-.014.032-.029.052-.046C682.375,812.609,682.409,812.586,682.517,812.516Z" transform="translate(-572.913 -655.414)" fill="#474747"/>
              <path id="Path_66" data-name="Path 66" d="M575.56,887.644c.27-.133.577-.287.907-.464C576.323,887.255,576.047,887.395,575.56,887.644Z" transform="translate(-497.027 -708.463)" fill="#474747"/>
              <path id="Path_67" data-name="Path 67" d="M574.584,888.69c-.243.13-.432.232-.615.328C573.891,889.084,573.976,889.052,574.584,888.69Z" transform="translate(-495.881 -709.536)" fill="#474747"/>
              <path id="Path_68" data-name="Path 68" d="M579.828,885.03c-.394.226-.768.429-1.128.623.139-.07.2-.1.165-.073Z" transform="translate(-499.257 -706.937)" fill="#474747"/>
              <path id="Path_69" data-name="Path 69" d="M482.68,417.22c.052-.009.11-.02.168-.032C483.611,416.93,483.271,417.028,482.68,417.22Z" transform="translate(-431.076 -374.624)" fill="#474747"/>
              <path id="Path_70" data-name="Path 70" d="M716.6,635.833c.029.02.046.032.073.052-.026-.023-.061-.055-.087-.075Z" transform="translate(-597.169 -529.972)" fill="#474747"/>
              <path id="Path_71" data-name="Path 71" d="M708.79,630.32a9.536,9.536,0,0,1,1.279.777c.174.127.339.252.5.385s.316.278.484.426c-.162-.287-.316-.589-.493-.867-.3-.128-.586-.258-.881-.377Z" transform="translate(-591.63 -526.074)" fill="#474747"/>
              <path id="Path_72" data-name="Path 72" d="M323.614,367.791a16.735,16.735,0,0,0,1.763,1.154,13.309,13.309,0,0,1-2.569-1.412c-.223-.159-.331-.232-.29-.174a4.589,4.589,0,0,0,.62.58,5.453,5.453,0,0,1,1.31.623,23.669,23.669,0,0,0,2.569,1.18,11.337,11.337,0,0,0,4.021,1.006c.429.133.861.249,1.3.371-.377-.081-.441-.075-.812-.159a7.347,7.347,0,0,0,2.337.391,20.166,20.166,0,0,1,2.911.252c1.151.168,1.954.3,1.16.264.864.058,1.725.1,2.586.133.748.058.562.116-.186.055,1.313.09,2.624.151,3.937.2l-.029.012c.565-.038,1.838-.09,2.459-.116,1,.081-.5.029-.246.084l2.177-.052c.884.113-.919.191-2.424.136a6.923,6.923,0,0,0,2.212.174,35.627,35.627,0,0,1,3.981.029l-2.056.046c1.325.232,2.931.151,5.253.264-.554-.061-4.653-.319-2.293-.429a23.658,23.658,0,0,0,2.812-.061,10.712,10.712,0,0,0,2.809.052l-.1.188a21.124,21.124,0,0,0,2.531-.287,8.4,8.4,0,0,1,2.708.217c3-.049-2.076-.177,1.47-.3,2.493,0,4.239-.122,7.213-.31,1.742.02-.3.122.325.159l1.54-.186c.377-.006.258.043.194.067a16.368,16.368,0,0,1,2.148-.284c.548-.217,4.2.215,6.732-.029.623.049-.3.116-.11.186,3.47-.165,2.975-.125,5.828-.307l2.427.159c-1.78-.171.5-.3,2.505-.374-.632-.09-1.171-.162-1.534-.2,1.064-.009,2.131-.006,3.2,0,.386.046.061.1-.467.154.217-.009.426-.015.586-.02,1.137.119.542.2-.278.27-.386-.052-.771-.1-1.145-.157-.791.087-1.531.191-1.368.3.209-.017.606-.023,1.047-.017-.206.023-.339.046-.244.07a7.714,7.714,0,0,0,.963-.038l.716.235.18-.075c1.386.1,2.769.212,4.149.345,1.49-.006,2.888-.032,4.505.009a54.164,54.164,0,0,1,5.8.446c-1.186-.02-.284.206-.374.377a49.363,49.363,0,0,0-6.068-.664c1.27.133.98.2.655.194q2.179.126,4.352.325c-.116.133.9.229,2.018.464-.4-.209.409-.136,1.54.032s2.575.455,3.45.606c.084.128-.345.107-2.464-.319a13.523,13.523,0,0,0,2.688.476,10.416,10.416,0,0,1,2.641.548,5.051,5.051,0,0,0-1-.215,21.693,21.693,0,0,1,2.421.615c.783.241,1.319.458.968.391-.168-.052-.333-.1-.5-.151a56.448,56.448,0,0,1,6.268,2.322c2.093.913,3.752,1.876,4.039,1.908a1.91,1.91,0,0,1-.751-.052c.957.409,1.893.87,2.818,1.374a29.17,29.17,0,0,1,2.685,1.7c-.272-.116-.11.29-.159.478s-.281.145-1.4-.748c.6.565,1.351,1.241,2.554,2.485-.339-.441-.736-1.232-.185-.687.632.864.832,1.168,1.078,1.522.119.177.261.357.438.647s.426.661.731,1.232c-.212-.362-.122-.4.113-.2a4.71,4.71,0,0,1,.945,1.226c-.148-.156-.226.255-.5-.142a23.5,23.5,0,0,1,1.769,2.827c-.191-.371-.27-.377-.273-.2a5.127,5.127,0,0,0,.151.893,6.181,6.181,0,0,1,.493,1.319c.142.409.249.87.368,1.27s.188.762.249.974c-.084-.461-.165-.922-.275-1.377.13.449.223.847.316,1.2s.177.661.249.942c.156.562.281,1.012.406,1.461a12.217,12.217,0,0,1,.464,3.711c-.029-.229-.142-.51-.241-.493s-.18.325-.241,1.264a18.716,18.716,0,0,1,.226,2.7,16.9,16.9,0,0,1-.586,4.558l-.3.589c-.235.832-.513,1.653-.815,2.467.2-.792.58-2.3.844-3.908a33.805,33.805,0,0,0,.432-4.534,6.1,6.1,0,0,1-.215.957c-.055.177-.075.447-.29,1.47-.119.351-.093.064-.026-.383s.145-1.061.2-1.363a28.355,28.355,0,0,1-1.168,4.682c.128-.072-.11.826-.406,1.716-.151.444-.313.884-.417,1.212s-.177.528-.119.5a32.131,32.131,0,0,0,1.589-5.056c.119-.081.075.7-.209,1.908a20.618,20.618,0,0,1-1.615,4.4c-.461.765-.017-.748-.113-.71-.032.11-.133.351-.267.658-.07.154-.145.325-.223.5s-.177.357-.267.539a15.582,15.582,0,0,1-.855,1.542c.209-.449.435-.887.629-1.339-.49.832-.832,1.545-1.229,2.287a14.038,14.038,0,0,1-1.6,2.415c-.244.322-.635.78-.986,1.166a3.235,3.235,0,0,0-.629.8c.966-.91,1.682-.719,1.279.093-.046.055-.243.29-.519.62s-.649.748-1.041,1.171c-.78.855-1.644,1.734-2,2.044-.513.441-.252,0,.02-.461s.551-.945.125-.565a5.278,5.278,0,0,1-.615.913c-.606.6.122-.362-1.11,1.012-.052.374-2.612,2.7-.476.754-.609.67-.948,1.012-1.328,1.365s-.789.739-1.551,1.479c.58-.377-1.076,1.641-2.409,2.891.046-.107-.3.113-.47.223-1.406,1.221-2.517,2.122-3.621,2.983s-2.186,1.693-3.569,2.74c-.281.159-1.658,1.113-1.136.618a19.474,19.474,0,0,1-1.569,1.287c-1.774,1.078,1.911-1.427.516-.661a8.534,8.534,0,0,1-1.238,1.058l-2.122,1.615a28.457,28.457,0,0,0,4.079-2.969c.151.188-1.824,1.995-4.766,4.143-2.357,1.673-1.128.568-1.522.881-2.267,1.487-3.189,2.192-4.018,2.83a25.03,25.03,0,0,1-3.546,2.293c-1.609.794-.229-.223-.626-.113,1.977-1.27,3.122-1.812,4.468-2.67l-1.7.986c.606-.441,1.911-1.313,2.653-1.742-.667.348-2.595,1.58-4.839,2.94s-4.8,2.856-6.648,3.833c-.62.412-1.711,1.087-1.151.844l1.142-.67c1.122-.49-2.082,1.377-.594.6a58.248,58.248,0,0,1-5.416,3.163l-.5.064a13.953,13.953,0,0,0,2.082-1.064c-.878.568-3.488,1.606-4.392,2.34l1.609-.71c-1.534.916-3.4,2.1-5.407,3.059.98-.3.446-.249,1.942-.786-.667.2.6-.446,1.763-1.055s2.235-1.177,1.2-.783c1.539-.548,2.519-1.223,4.471-2.064-.087-.02-.71.264.936-.612.067-.055.229-.171.333-.244l.113-.058c-.035.014-.058.029-.093.043.067-.046.072-.052-.035.017a7.707,7.707,0,0,1-.873.383c.745-.562,3.328-2.009,4.16-2.575.971-.525-.368.287.188.044l1.241-.841c.194.043,2.641-1.3.435.084l2.021-1.189a42.35,42.35,0,0,0,3.824-2.282c.954-.563,2.288-1.615,1.528-1.012q1.531-1.022,3.044-2.07l.046.009c3.038-2,6.054-4.381,9.495-6.721.948-.777,1.925-1.577,3.531-2.85l.38-.168c.3-.261.676-.574,1.084-.907s.841-.7,1.253-1.038a17,17,0,0,0,1.745-1.6,26.2,26.2,0,0,0,3.583-3.221c1.438-1.467,2.876-3.12,3.8-4.166l-.044-.174a46.257,46.257,0,0,0,3.673-4.908l-.188.046c.536-.873,1.284-1.954,2.061-3.2a33.224,33.224,0,0,0,2.218-4.163,8.277,8.277,0,0,1-.684,1.482A21.673,21.673,0,0,0,442.919,409a49.413,49.413,0,0,0,1.05-5.668c.032-.887.058-1.525.1-2.148,0,.081.006.157.006.22.006-.09,0-.226,0-.365.012-.391.052-.8.038-1.235,0,.374-.035.731-.041,1.041,0-.342-.012-.774-.055-1.244-.026-.473-.09-.983-.162-1.484.029-.148.067-.3.087-.447-.015-.081-.023-.148-.038-.232-.1-1-.183-.783-.209-.244a12.407,12.407,0,0,0-.316-1.3,5.8,5.8,0,0,0-.328-1.737c-.1-.333-.209-.678-.3-1.009a5.419,5.419,0,0,1-.206-.922c-.078-.154-.246-.525-.446-1-.1-.241-.229-.5-.351-.774-.064-.136-.13-.275-.194-.417l-.217-.417a16.631,16.631,0,0,0-.878-1.513,4.084,4.084,0,0,0-.638-.791c.006-.044-.133-.307.151.157a14.793,14.793,0,0,0-1.9-2.635c-.049-.165-.116-.319-.174-.478-.3-.287-.6-.568-.913-.835s-.626-.531-.948-.786c-.5-.554-.873-.925-.957-1.067s.11-.038.707.412c-1.409-1.122-2.015-1.516-2.557-1.893a19.88,19.88,0,0,0-2.38-1.4l.186-.02c-.928-.568-2.528-1.229-3.076-1.589a35.19,35.19,0,0,0-7.1-2.821,96.263,96.263,0,0,0-10.2-2.308c.565.258-.136.1-1.018-.064a6.855,6.855,0,0,0-2.082-.243c-.348-.122-1.2-.261-.194-.217a57.337,57.337,0,0,0-6.886-.525c-.354-.1.678-.072.362-.142a8.919,8.919,0,0,1-1.328-.064c-.316-.067.464-.038.966-.041-3.212-.183-3.549.072-3.792.287a14.887,14.887,0,0,0-3.61-.067c-.562-.09-1.5-.194.487-.171-.56-.02-2.273-.093-3.859-.113a17.34,17.34,0,0,0-3.1.09,16.534,16.534,0,0,0-1.861.009c-2.514,0-2.734-.009-5.2.043l.684.02a25.563,25.563,0,0,1-4.039.151l.055-.023c-4.563-.055-1.966.122-6.468.055l.249.133c-.412.31-3.987-.067-6.593.116l.942.055c-1.424.142-3.992-.307-5.422-.316-.313-.02.49-.049.925-.081-3.746-.1-.481.194-3.27.284-.516-.093.658-.258-1.218-.252-.934-.061-5.439.362-7.993.107.562.087,1.119.174-.174.2-1.989-.009-5.338-.47-7.132-.391-.249-.041-.342-.067-.351-.087-.754-.032-1.98-.119-3.125-.232s-2.215-.232-2.673-.252c-.647-.351-2.954-.71-5.016-1.319a17.44,17.44,0,0,1-2.676-.983,6.475,6.475,0,0,1-.786-.438c-.174-.128-.258-.218-.226-.264a10.617,10.617,0,0,1-3.375-2.853l.1.067a9.581,9.581,0,0,1-1.4-2.714,15.047,15.047,0,0,1-.461-1.679c-.014-.667.061-.186.084-.133a12.685,12.685,0,0,1,.107-2.543c.087-.681.194-1.235.3-1.766.046-.267.116-.525.171-.794s.128-.545.2-.844c.154-.6.3-1.29.571-2.16l.261-.3c.032-.119.09-.3.174-.531s.212-.5.351-.823.287-.684.484-1.067.4-.8.621-1.241a59.712,59.712,0,0,1,3.331-5.5,1.627,1.627,0,0,1-.22.415,31.669,31.669,0,0,1,5.071-5.743,51.879,51.879,0,0,0,4.016-3.668c.818-.661,1.644-1.313,2.5-1.931-3.389,2.29.368-.542-1.07.342,1.311-.954,3.592-2.131,1.925-1.058l-.275.142c-.229.313.847-.362,2.012-1.041a12.464,12.464,0,0,1,2.415-1.247q2.653-1.435,5.384-2.627t5.494-2.183c3.682-1.325,7.37-2.441,11.011-3.444l-.9.029c.847-.235,1.7-.467,2.548-.687.681-.13.939-.078-.878.4a12.371,12.371,0,0,0,1.884-.513,9.837,9.837,0,0,0,1.18-.441c1.8-.412,1.464-.255.818-.046s-1.6.5-1.055.368l1.482-.391-.342.058a25.607,25.607,0,0,1,3.476-1.006,6.712,6.712,0,0,1,1.3-.154c0,.009.046,0,.177-.023s.339-.078.67-.159c1.084-.235,2.166-.467,3.253-.687l-1.337.113c1.424-.391,3.065-.638,1.522-.51,1.131-.1,4.178-.69,7.121-1.252s5.778-1.108,6.468-1.189c2.012-.493,4.021-.852,6.512-1.29-.626.078-1.029-.041,1.122-.406-.716.525,3.96-.548,5.746-.6-.792.052.731-.241,2.143-.533s2.705-.58,1.467-.47c1.795-.319.136.122,1.511-.055,4.221-1,9.391-1.835,14.572-3.3.067-.07-.821.087.27-.284.931-.177,1.867-.351,2.8-.548a13.181,13.181,0,0,1,2.746-1.006c-.275.043-.684.11-.012-.128a67.082,67.082,0,0,0,14.691-6.451A40.775,40.775,0,0,0,458.2,288.525c-.461.583-.56.664-.452.49.052-.087.154-.238.281-.426s.264-.426.415-.664c-.409.609-.1-.081-.232,0a21.734,21.734,0,0,0,2.2-3.984c.049-.426.461-1.58.687-2.746a7.956,7.956,0,0,0,.223-2.548,14.1,14.1,0,0,1-.1,1.444c.009-.968-.174-.3-.444.522s-.687,1.8-.786,1.626a11.22,11.22,0,0,1-1.484,3.615c-.765,1.325-1.745,2.691-2.685,4.117-.51.551.328-.557.029-.284-.11.186-.232.38-.371.586s-.322.409-.519.641-.409.5-.687.763-.58.565-.928.9l.133-.177c-.232.246-.478.464-.71.678l-.681.621c-.444.4-.89.736-1.3,1.079s-.844.638-1.253.939-.815.6-1.247.864-.855.551-1.3.838l-1.435.838c-.252.145-.5.3-.78.446s-.554.293-.847.446c-.586.307-1.2.649-1.9.968l.47-.078c-1.189.571-1.455.655-2.021.9-1.264.861,3.317-1.635,2.189-.818a20.028,20.028,0,0,0-2.035.873c-.89.394-1.934.861-2.969,1.308-1.049.415-2.073.847-2.925,1.139a11.1,11.1,0,0,1-1.827.513c-1.908.687.618-.038-1.3.623l-.539.087-.452.264a5.953,5.953,0,0,1-2.012.444c.313-.081.867-.3,1.195-.412-1.661.458-4.648,1.435-5.233,1.548.635-.148,1.264-.307,1.9-.47-5.309,1.621-11.977,2.928-17.222,4.123l.415-.015c-4.013.9-3.244.557-7.671,1.429l.159-.044c-.876.226-2.059.476-3.273.687,1.107-.278-2.137.238-.681-.113a39.958,39.958,0,0,0-5.007,1.255l-.687.017a26.138,26.138,0,0,1-3.256.78c1.8-.429-1.447.1.571-.4-4.7.638-6.86,1.551-9.057,1.65-1.035.362-.023.2,1.1-.017a10.788,10.788,0,0,1,1.768-.325c1.018-.1-1.719.562-3.178.835-1.481.3-2.6.139-6.315.98.371-.081.391-.11.76-.191-1.409.238-2.7.719-4.43,1.015-.91.4-2.206.542-2.424.832,1.122-.31,2.25-.6,3.378-.9-1.911.528-3.647,1.226-6.825,1.969.232-.116,1.151-.432,1.789-.635-.942.177-1.76.528-2.734.728a10.284,10.284,0,0,1,2.372-.794c1.247-.345,2.722-.719,3.731-1.058a22,22,0,0,0-2.189.571c-.713.209-1.177.339-.693.081-1.4.7-3.644.939-6.048,1.925l.122-.183c-.383.145-1.177.446-1.893.678.415-.2.832-.386,1.247-.577-1.954.763-3.891,1.1-5.758,1.873.989-.365,1.548-.539,1.85-.626s.351-.075.328-.041c-.046.072-.374.258.481.017-.606.232-1.1.415-1.528.562s-.763.273-1.055.365c-.586.186-.971.272-1.374.374a21.634,21.634,0,0,0-4.375,1.563c.713-.342,2.769-1.058,1.65-.536-.522.189-1.116.432-1.67.641s-1.055.4-1.38.51c-3.5,1.65.594-.125-.861.641a16.521,16.521,0,0,0-3.157,1.7l-.075-.119a8.165,8.165,0,0,0-2.343,1.406,1.929,1.929,0,0,1-.426.354c-.267.18-.736.449-1.583.96.438-.354.876-.707,1.328-1.041-.591.357-1.16.748-1.737,1.128l.276-.362c-1.838,1.313-2.427,1.687-4.224,2.983.232-.119.215-.023-.055.249s-.792.719-1.534,1.357c-.536.394-.417.249-.423.232s-.041.012-.209.148-.452.4-.963.873c.2-.241.415-.5.7-.786a7.538,7.538,0,0,1,1.16-.919c.067-.113.418-.467.493-.577a29.425,29.425,0,0,0-3.488,3.053c.284-.267.615-.591.809-.731-.473.478-.922.983-1.383,1.473-.438.513-.881,1.018-1.3,1.537-.452.446-.162.032.145-.365-.273.3-.475.586-.722.9s-.522.652-.884,1.131c.11-.31-.052-.345,1.032-1.67-.4.5-.82.995-1.194,1.519s-.771,1.032-1.122,1.571c-.1.09-.412.473-.676.78-.247.316-.441.557-.322.333a23.354,23.354,0,0,0-1.89,3.288c-.154.316-.307.638-.464.96s-.29.661-.441.989-.3.658-.444.991-.281.664-.426.986c-.029.148-.145.42-.325,1-.476,1.247-.893,2.421-1.258,3.705a13.771,13.771,0,0,0-.533,4.349,12.143,12.143,0,0,0-.061,1.9c.278,1.3.215.641.2.215-.012-.215.006-.374.061-.215.075.157.142.644.5,1.661a13.643,13.643,0,0,0,.594,1.363c.11.244.13.328.119.357-.029.064-.209-.084.058.4a11.778,11.778,0,0,0,2.122,2.157,24.214,24.214,0,0,0,3.267,2.1A16.855,16.855,0,0,1,323.614,367.791Zm29.628,4.607a13.469,13.469,0,0,1-2.166.041A7.53,7.53,0,0,1,353.242,372.4Zm45.472-.652a13,13,0,0,1-1.844-.122C397.415,371.635,398.032,371.67,398.714,371.745Zm3.117,78.759c.02-.014.035-.026.049-.038C403.016,449.837,402.613,450.057,401.831,450.5Zm-2.34,1.337c-.223.154-.2.162-.09.122a14.324,14.324,0,0,1,1.258-.783A6.629,6.629,0,0,0,399.491,451.841ZM374.809,317.854l-.516.078C375.433,317.633,375.117,317.744,374.809,317.854Z" transform="translate(-314.745 -276.362)" fill="#474747"/>
              <path id="Path_73" data-name="Path 73" d="M575.569,599.471a.55.55,0,0,1-.246-.081C575.093,599.407,575.09,599.433,575.569,599.471Z" transform="translate(-496.752 -504.111)" fill="#474747"/>
              <path id="Path_74" data-name="Path 74" d="M326.25,524.61l.038-.084a.277.277,0,0,0,.012-.1Z" transform="translate(-319.999 -450.884)" fill="#474747"/>
              <path id="Path_75" data-name="Path 75" d="M707.59,783.581c.383-.394.6-.612.754-.748C708.332,782.787,708.161,782.966,707.59,783.581Z" transform="translate(-590.778 -634.364)" fill="#474747"/>
              <path id="Path_76" data-name="Path 76" d="M554.4,898.651l1.508-.841c-.734.4-1.009.513-1.395.687C554.562,898.509,554.875,898.4,554.4,898.651Z" transform="translate(-482.002 -716.011)" fill="#474747"/>
              <path id="Path_77" data-name="Path 77" d="M505.219,920.6c-.22.125-.481.229-.7.351l.09.029C505.578,920.523,506.231,920.149,505.219,920.6Z" transform="translate(-446.584 -732.05)" fill="#474747"/>
              <path id="Path_78" data-name="Path 78" d="M543.44,901.845a11.085,11.085,0,0,0-2.18,1.061l.191-.1C541.208,903.117,542.33,902.485,543.44,901.845Z" transform="translate(-472.672 -718.875)" fill="#474747"/>
              <path id="Path_79" data-name="Path 79" d="M537.946,905.96c-.327.177-.667.348-.994.507C536.856,906.592,537.363,906.279,537.946,905.96Z" transform="translate(-469.604 -721.798)" fill="#474747"/>
              <path id="Path_80" data-name="Path 80" d="M585.516,880.807c-.513.258-.238.31-.542.429C584.5,881.689,588.192,879.169,585.516,880.807Z" transform="translate(-503.681 -703.54)" fill="#474747"/>
              <path id="Path_81" data-name="Path 81" d="M545.18,901.024l.449-.07.545-.414Z" transform="translate(-475.455 -717.95)" fill="#474747"/>
              <path id="Path_82" data-name="Path 82" d="M569.064,887.02l-1.7.9c.038.009-.171.136-.429.293C567.974,887.643,569.125,887.037,569.064,887.02Z" transform="translate(-490.9 -708.35)" fill="#474747"/>
              <path id="Path_83" data-name="Path 83" d="M563.611,891.12c-.545.3-1.061.574-1.351.76C562.553,891.717,563.185,891.375,563.611,891.12Z" transform="translate(-487.583 -711.261)" fill="#474747"/>
              <path id="Path_84" data-name="Path 84" d="M553.16,895.747l.516-.238,1.206-.629Z" transform="translate(-481.122 -713.931)" fill="#474747"/>
              <path id="Path_85" data-name="Path 85" d="M635.057,846.661l1.708-1.229c.148-.162-.339.139-.971.6C635.4,846.347,634.764,846.8,635.057,846.661Z" transform="translate(-539.221 -678.787)" fill="#474747"/>
              <path id="Path_86" data-name="Path 86" d="M616.18,859.231a6.407,6.407,0,0,1,.841-.406l-.043-.186Z" transform="translate(-525.871 -688.198)" fill="#474747"/>
              <path id="Path_87" data-name="Path 87" d="M632.051,846.633c.148-.157,2.43-1.841.244-.328C632.149,846.468,630.433,847.683,632.051,846.633Z" transform="translate(-536.65 -678.995)" fill="#474747"/>
              <path id="Path_88" data-name="Path 88" d="M715.3,778.04l-.336.415.276.127Z" transform="translate(-596.012 -630.966)" fill="#474747"/>
              <path id="Path_89" data-name="Path 89" d="M745.12,689.7a5.424,5.424,0,0,0,.186,1.455.736.736,0,0,1,.07.276,6.589,6.589,0,0,1,.02,1.015c.038.284.052-.162.061-.612-.009-.447-.017-.893.029-.6C745.314,689.776,745.213,689.016,745.12,689.7Z" transform="translate(-617.427 -568.059)" fill="#474747"/>
              <path id="Path_90" data-name="Path 90" d="M746.37,695.62c.026.235.055.484.084.748C746.419,695.942,746.387,695.742,746.37,695.62Z" transform="translate(-618.315 -572.442)" fill="#474747"/>
              <path id="Path_91" data-name="Path 91" d="M810.46,282.68a16.511,16.511,0,0,0,.3-1.65c-.058.359-.151.71-.229,1.061Z" transform="translate(-663.824 -278.052)" fill="#474747"/>
              <path id="Path_92" data-name="Path 92" d="M810.464,272.186c.064-.13.116-.267.174-.4a9.7,9.7,0,0,0-.278-1.023A5.781,5.781,0,0,1,810.464,272.186Z" transform="translate(-663.753 -270.76)" fill="#474747"/>
              <path id="Path_93" data-name="Path 93" d="M449.8,602.919l.122-.046a9.309,9.309,0,0,0-1.377-.038Z" transform="translate(-406.834 -506.556)" fill="#474747"/>
              <path id="Path_94" data-name="Path 94" d="M376.844,599.479l.374.055-.678-.264Z" transform="translate(-355.709 -504.026)" fill="#474747"/>
              <path id="Path_95" data-name="Path 95" d="M320.87,571.031a9.894,9.894,0,0,0,1.386,2.256,7.426,7.426,0,0,1-1.078-1.783C320.992,571.08,320.925,570.883,320.87,571.031Z" transform="translate(-316.179 -483.939)" fill="#474747"/>
            </g>
          </g>
        </g>
      </g>
    </g>
  </g>
</svg>
