<?xml version="1.0" encoding="utf-8"?>
<!-- Generator: Adobe Illustrator 26.0.1, SVG Export Plug-In . SVG Version: 6.00 Build 0)  -->
<svg version="1.1" id="Layer_1" xmlns="http://www.w3.org/2000/svg" xmlns:xlink="http://www.w3.org/1999/xlink" x="0px" y="0px"
	 viewBox="0 0 1080 1080" style="enable-background:new 0 0 1080 1080;" xml:space="preserve">
<style type="text/css">
	.st0{fill:#474747;}
</style>
<path class="st0" d="M8.7,744.2c40.6-39.2,77.6-75,116.1-112.2c13.7,12.7,27.4,25.4,41.1,38.1c17.3,15.9,34.8,31.7,51.8,47.8
	c8.1,7.6,13.3,7,20.6-1.9c22.6-27.6,46.3-54.5,65.8-77.2c21.9,8.4,39.6,16.7,58.1,21.6c6.8,1.8,17.2-2.4,23.4-7.2
	c23.6-18.1,46.1-37.7,71.3-58.6c19.8,17.7,42.4,37.7,64.8,58c13.3,12.1,49.6,12.9,62.8,0.8c9-8.2,17.3-17.2,26.9-24.6
	c5.3-4.1,12.5-7.7,19.1-8.1c24.8-1.6,41.5-12.7,53-35.2c4.7-9.3,16.6-14.9,24.8-22.6c4.1-3.9,9.1-8.2,10.5-13.3
	c8.8-32,26.9-47.6,62.3-45.4c18.5,1.2,37.6-7.3,56.5-10.4c8.6-1.4,17.7-0.2,31.9-0.2c26.4-25.7,57.2-56.1,88.6-85.8
	c4.7-4.4,12.4-5.7,20.8-9.2c0-2.3,0-7.1,0-11.9c-0.4-40.6-0.4-40.5-40.4-44.8c-5.3-0.6-10.4-1.7-16.5-6.8
	c20-8.4,39.9-16.7,64.2-26.9c0,29.4,1.2,54.1-0.4,78.7c-1.1,15.8,5.5,25.4,15.6,36.2c24.1,25.7,47.1,52.5,69.2,79.9
	c5.5,6.8,8.4,17.6,8.5,26.5c0.7,65.1-0.2,130.3,0.8,195.4c0.3,17-6,20.1-21.1,20.1c-179.9-0.4-359.8-0.3-539.7-0.2
	c-163.4,0.1-326.8,0.3-490.3,0.5C24.2,745.5,19.5,744.9,8.7,744.2z"/>
</svg>
